/* XPM */
static char * bottom_right_active_xpm[] = {
"30 36 148 2",
"  	c None",
". 	c #0280CD",
"+ 	c #0167AF",
"@ 	c #004F96",
"# 	c #004686",
"$ 	c #003366",
"% 	c #FFFFFF",
"& 	c #DCDCD9",
"* 	c #A5A599",
"= 	c #00498C",
"- 	c #0164AD",
"; 	c #0165AE",
"> 	c #005198",
", 	c #004787",
"' 	c #005097",
") 	c #004584",
"! 	c #576380",
"~ 	c #027BC7",
"{ 	c #0160A9",
"] 	c #868D9E",
"^ 	c #D7D7D4",
"/ 	c #0279C5",
"( 	c #015CA4",
"_ 	c #004D93",
": 	c #FAFAF9",
"< 	c #D0D0CB",
"[ 	c #0174BF",
"} 	c #00539A",
"| 	c #004C90",
"1 	c #BCBFC7",
"2 	c #C8C8C3",
"3 	c #005299",
"4 	c #004A8E",
"5 	c #C7C9CF",
"6 	c #FCFCFC",
"7 	c #BFBFB8",
"8 	c #015CA3",
"9 	c #E5E6E9",
"0 	c #F6F6F5",
"a 	c #B9B9B1",
"b 	c #016FB9",
"c 	c #004C91",
"d 	c #E7E8EB",
"e 	c #E5E5E2",
"f 	c #ACACA1",
"g 	c #0158A1",
"h 	c #004382",
"i 	c #A7ABB6",
"j 	c #FDFDFD",
"k 	c #DFDFDB",
"l 	c #A8A89D",
"m 	c #0278C3",
"n 	c #004D92",
"o 	c #00376C",
"p 	c #3D4F74",
"q 	c #BBBDC5",
"r 	c #FDFDFE",
"s 	c #A5A59A",
"t 	c #0164AC",
"u 	c #004E95",
"v 	c #00427E",
"w 	c #C2C5CC",
"x 	c #F8F8F9",
"y 	c #D6D6D2",
"z 	c #A7A79B",
"A 	c #015EA6",
"B 	c #004381",
"C 	c #FBFBFB",
"D 	c #AEAEA4",
"E 	c #0169B3",
"F 	c #004484",
"G 	c #E7E8EA",
"H 	c #FAFAFB",
"I 	c #E9E9E7",
"J 	c #015FA7",
"K 	c #D9DADF",
"L 	c #FEFEFE",
"M 	c #F2F2F1",
"N 	c #AFAFA5",
"O 	c #016EB8",
"P 	c #00569D",
"Q 	c #005096",
"R 	c #003F7B",
"S 	c #B8BBC3",
"T 	c #F4F5F6",
"U 	c #CBCBC5",
"V 	c #A8A89C",
"W 	c #027DCA",
"X 	c #0271BC",
"Y 	c #016DB5",
"Z 	c #0160A8",
"` 	c #005196",
" .	c #003F7A",
"..	c #FCFCFD",
"+.	c #E1E1DE",
"@.	c #A7A79C",
"#.	c #0162AC",
"$.	c #0162AB",
"%.	c #0161A9",
"&.	c #015DA4",
"*.	c #01589F",
"=.	c #004F91",
"-.	c #003B74",
";.	c #AFB3BD",
">.	c #C5C6BF",
",.	c #AFAFA4",
"'.	c #A6A69A",
").	c #005194",
"!.	c #004C8F",
"~.	c #003A73",
"{.	c #B7BAC3",
"].	c #F8F8F8",
"^.	c #A9A99D",
"/.	c #005095",
"(.	c #004E94",
"_.	c #00488A",
":.	c #003D77",
"<.	c #003468",
"[.	c #003466",
"}.	c #003467",
"|.	c #7B8296",
"1.	c #EAEBED",
"2.	c #EEEEED",
"3.	c #B4B4AB",
"4.	c #004889",
"5.	c #004A8D",
"6.	c #00407C",
"7.	c #003B72",
"8.	c #00386F",
"9.	c #003569",
"0.	c #ECEDEF",
"a.	c #F8F8F7",
"b.	c #DDDDDA",
"c.	c #013366",
"d.	c #043467",
"e.	c #053567",
"f.	c #798195",
"g.	c #9B9FAD",
"h.	c #D4D5DA",
"i.	c #EDEDEF",
"j.	c #ECECEA",
"k.	c #CACAC4",
"l.	c #D9D9D5",
"m.	c #B2B2A9",
"n.	c #A6A69B",
"o.	c #B0B0A6",
"p.	c #B3B3AA",
"q.	c #A9A99E",
". . . . . . . . . . . . . . . . . . . . . + @ @ # $ % % & * ",
". . . . . . . . . . . . . . . . . . . . . + @ @ = $ % % & * ",
". . . . . . . . . . . . . . . . . . . . . + @ @ = $ % % & * ",
". . . . . . . . . . . . . . . . . . . . . + @ @ = $ % % & * ",
". . . . . . . . . . . . . . . . . . . . . + @ @ = $ % % & * ",
". . . . . . . . . . . . . . . . . . . . . - @ @ = $ % % & * ",
". . . . . . . . . . . . . . . . . . . . . - @ @ = $ % % & * ",
". . . . . . . . . . . . . . . . . . . . . - @ @ # $ % % & * ",
". . . . . . . . . . . . . . . . . . . . . - @ @ # $ % % & * ",
". . . . . . . . . . . . . . . . . . . . . ; @ @ # $ % % & * ",
". . . . . . . . . . . . . . . . . . . . . ; > @ , $ % % & * ",
". . . . . . . . . . . . . . . . . . . . . - ' @ ) $ % % & * ",
". . . . . . . . . . . . . . . . . . . . . - ' @ $ ! % % & * ",
". . . . . . . . . . . . . . . . . . . . ~ { > @ $ ] % % ^ * ",
". . . . . . . . . . . . . . . . . . . . / ( ' _ $ ] % : < * ",
". . . . . . . . . . . . . . . . . . . . [ } @ | $ 1 % % 2 * ",
". . . . . . . . . . . . . . . . . . . . + 3 @ 4 $ 5 % 6 7 * ",
". . . . . . . . . . . . . . . . . . . . 8 ' @ # $ 9 % 0 a * ",
". . . . . . . . . . . . . . . . . . . b 3 ' c $ ] d % e f * ",
". . . . . . . . . . . . . . . . . . / g @ @ h $ i j % k l   ",
". . . . . . . . . . . . . . . . . m ( ' @ n o p q r j f s   ",
". . . . . . . . . . . . . . . . / t ' @ u v $ w x % y z *   ",
". . . . . . . . . . . . . . . [ A @ @ @ B $ $ j 6 C D *     ",
". . . . . . . . . . . . . . E 3 @ @ @ F $ $ G 6 H I l *     ",
". . . . . . . . . . . . [ J ' @ @ @ h $ $ K % L M N *       ",
". . . . . . . . . . m O P @ @ @ Q R $ $ S T % L U V         ",
". . . . . . . W X Y Z ' @ @ @ `  .$ $ 1 % % ..+.@.*         ",
"- - #.$.%.&.*.*.*.3 @ @ @ @ =.-.$ $ ;.% % H >.,.'.          ",
"@ @ @ @ ' ' ' @ @ @ @ ).!.~.$ $ $ {.% % ].< ^.@.            ",
"@ @ @ @ @ @ @ @ /.(._.:.<.[.}.|.1.% L 2.3.l *               ",
"# # # 4._ 5.6.7.8.9.$ $ $ ;.0...L a.b.* * *                 ",
"$ $ $ $ $ c.d.$ e.f.g.h.i.% % C j.k.z * *                   ",
"% % % % % % % % L L % % % C l.m.n.* *                       ",
"% % % % % % % % C a.l.o.* ^.* * *                           ",
"& & & & & N p.l * '.* * * q.                                ",
"* * * * * * * * * * *                                       "};
