/* XPM */
static char * bottom_left_active_xpm[] = {
"30 36 217 2",
"  	c None",
". 	c #A5A599",
"+ 	c #DCDCD9",
"@ 	c #FFFFFF",
"# 	c #003366",
"$ 	c #0079AB",
"% 	c #009BD3",
"& 	c #00CCFF",
"* 	c #018FD0",
"= 	c #0281CD",
"- 	c #0280CD",
"; 	c #CBCBC5",
"> 	c #FDFDFD",
", 	c #033366",
"' 	c #0083B5",
") 	c #00A9DB",
"! 	c #00CBFE",
"~ 	c #018CD1",
"{ 	c #0185CE",
"] 	c #BEBEB6",
"^ 	c #013366",
"/ 	c #003467",
"( 	c #0089BA",
"_ 	c #00AADB",
": 	c #028ED4",
"< 	c #0282CE",
"[ 	c #B9B9B1",
"} 	c #0082B3",
"| 	c #00A6D9",
"1 	c #018CD4",
"2 	c #0282CD",
"3 	c #BBBBB3",
"4 	c #0084B6",
"5 	c #00A6D7",
"6 	c #0189D1",
"7 	c #B7B7AF",
"8 	c #007CAC",
"9 	c #00A5D6",
"0 	c #AFAFA5",
"a 	c #006F9F",
"b 	c #00ABDE",
"c 	c #018BD2",
"d 	c #0281CE",
"e 	c #B3B3AA",
"f 	c #043467",
"g 	c #00608D",
"h 	c #A8A89D",
"i 	c #005C8A",
"j 	c #00A8DA",
"k 	c #0189D2",
"l 	c #FBFBFB",
"m 	c #FEFEFE",
"n 	c #053567",
"o 	c #00A9DA",
"p 	c #018BD4",
"q 	c #0281CC",
"r 	c #A6A69A",
"s 	c #F8F8F7",
"t 	c #798195",
"u 	c #0095C7",
"v 	c #00C7FA",
"w 	c #0194D9",
"x 	c #027FCB",
"y 	c #D9D9D5",
"z 	c #9B9FAD",
"A 	c #0077A6",
"B 	c #00BDEF",
"C 	c #0199DB",
"D 	c #027EC7",
"E 	c #B0B0A6",
"F 	c #D4D5DA",
"G 	c #005885",
"H 	c #00B8EA",
"I 	c #00C6F9",
"J 	c #01B7EF",
"K 	c #0282CB",
"L 	c #0280CA",
"M 	c #EDEDEF",
"N 	c #003F6F",
"O 	c #0093C2",
"P 	c #00BFF2",
"Q 	c #00C1F6",
"R 	c #0184CC",
"S 	c #027CC4",
"T 	c #A9A99E",
"U 	c #A9A99D",
"V 	c #AFB3BD",
"W 	c #003466",
"X 	c #005F8B",
"Y 	c #00B4E5",
"Z 	c #00C9FD",
"` 	c #0190D6",
" .	c #0180C8",
"..	c #A5A59A",
"+.	c #ECEDEF",
"@.	c #004E7B",
"#.	c #00A0CE",
"$.	c #01A9E5",
"%.	c #0189CF",
"&.	c #027BC5",
"*.	c #B2B2A9",
"=.	c #FCFCFD",
"-.	c #7B8296",
";.	c #006792",
">.	c #00A5D3",
",.	c #00C5F7",
"'.	c #00C8FC",
").	c #019ADB",
"!.	c #0181CB",
"~.	c #A6A69B",
"{.	c #ECECEA",
"].	c #EAEBED",
"^.	c #00AADE",
"/.	c #00BEF1",
"(.	c #0099D7",
"_.	c #008BCD",
":.	c #CACAC4",
"<.	c #B7BAC3",
"[.	c #004F96",
"}.	c #0094CB",
"|.	c #00BDF1",
"1.	c #0097D5",
"2.	c #0185C9",
"3.	c #A7A79B",
"4.	c #DDDDDA",
"5.	c #003D77",
"6.	c #008EC6",
"7.	c #00C3F5",
"8.	c #00BBF1",
"9.	c #0091D1",
"0.	c #017DC5",
"a.	c #027CC6",
"b.	c #0280CC",
"c.	c #EEEEED",
"d.	c #BCBFC7",
"e.	c #0071AA",
"f.	c #0096CD",
"g.	c #00A8DD",
"h.	c #008DCD",
"i.	c #0189CB",
"j.	c #0179C2",
"k.	c #017BC4",
"l.	c #B4B4AB",
"m.	c #F8F8F8",
"n.	c #B8BBC3",
"o.	c #003F7A",
"p.	c #004B8F",
"q.	c #007DB7",
"r.	c #00AFE4",
"s.	c #009BD4",
"t.	c #009ED7",
"u.	c #0194D1",
"v.	c #018FD2",
"w.	c #027AC5",
"x.	c #027DC9",
"y.	c #027FCC",
"z.	c #D0D0CB",
"A.	c #FAFAFB",
"B.	c #F4F5F6",
"C.	c #D9DADF",
"D.	c #00417D",
"E.	c #00498B",
"F.	c #005196",
"G.	c #0064A3",
"H.	c #0079B4",
"I.	c #0083C2",
"J.	c #0182C7",
"K.	c #016FBA",
"L.	c #0169B2",
"M.	c #0166AF",
"N.	c #0164AD",
"O.	c #C5C6BF",
"P.	c #E7E8EA",
"Q.	c #00366B",
"R.	c #004484",
"S.	c #005097",
"T.	c #00529A",
"U.	c #015AA1",
"V.	c #00569D",
"W.	c #005299",
"X.	c #A7A79C",
"Y.	c #AFAFA4",
"Z.	c #E1E1DE",
"`.	c #FCFCFC",
" +	c #C2C5CC",
".+	c #3D4F74",
"++	c #004686",
"@+	c #004A8D",
"#+	c #004B8E",
"$+	c #004C91",
"%+	c #005092",
"&+	c #005295",
"*+	c #F2F2F1",
"=+	c #F8F8F9",
"-+	c #BBBDC5",
";+	c #A7ABB6",
">+	c #868D9E",
",+	c #004584",
"'+	c #004787",
")+	c #00498C",
"!+	c #A8A89C",
"~+	c #E9E9E7",
"{+	c #FDFDFE",
"]+	c #E7E8EB",
"^+	c #E5E6E9",
"/+	c #C7C9CF",
"(+	c #576380",
"_+	c #AEAEA4",
":+	c #D6D6D2",
"<+	c #ACACA1",
"[+	c #DFDFDB",
"}+	c #E5E5E2",
"|+	c #F6F6F5",
"1+	c #FAFAF9",
"2+	c #BFBFB8",
"3+	c #C8C8C3",
"4+	c #D7D7D4",
". + @ @ # # $ % & & & * = - - - - - - - - - - - - - - - - - ",
". + @ @ # # $ % & & & * = - - - - - - - - - - - - - - - - - ",
". + @ @ # # $ % & & & * = - - - - - - - - - - - - - - - - - ",
". + @ @ # # $ % & & & * = - - - - - - - - - - - - - - - - - ",
". + @ @ # # $ % & & & * = - - - - - - - - - - - - - - - - - ",
". + @ @ # # $ % & & & * = - - - - - - - - - - - - - - - - - ",
". ; @ > , # ' ) & & ! ~ { - - - - - - - - - - - - - - - - - ",
". ] @ @ ^ / ( _ & & & : < - - - - - - - - - - - - - - - - - ",
". [ @ @ ^ # } | & & & 1 2 - - - - - - - - - - - - - - - - - ",
". 3 @ > , # 4 5 & & & 6 - - - - - - - - - - - - - - - - - - ",
". 7 @ @ ^ / 8 9 & & & 1 - - - - - - - - - - - - - - - - - - ",
". 0 @ @ ^ # a b & & & c d - - - - - - - - - - - - - - - - - ",
". e @ @ f # g ) & & & 1 d - - - - - - - - - - - - - - - - - ",
". h @ @ # # i j & & & k = - - - - - - - - - - - - - - - - - ",
". . l m n # i o & & & p q - - - - - - - - - - - - - - - - - ",
". r s m t # # u v & & w x - - - - - - - - - - - - - - - - - ",
". . y @ z # # A B & & C D d = - - - - - - - - - - - - - - - ",
". . E @ F # # G H I & J K L - - - - - - - - - - - - - - - - ",
". . . @ M # # N O P & Q R S - - - - - - - - - - - - - - - - ",
"  T U l @ V W # X Y I Z `  .x - - - - - - - - - - - - - - - ",
"  ... y @ +./ # @.#.B & $.%.&.- - - - - - - - - - - - - - - ",
"  . . *.l =.-.# # ;.>.,.'.).!.D - - - - - - - - - - - - - - ",
"    . ~.{.m ].# # # ;.^./.& (._.L - - - - - - - - - - - - - ",
"    . . :.s @ <.# # # [.}.|.& 1.2.x - - - - - - - - - - - - ",
"      . 3.4.m @ V # # 5.[.6.7.8.9.0.a.b.- - - - - - - - - - ",
"        . . c.@ @ d.# # 5.[.e.f.g.h.i.j.k.x b.- - - - - - - ",
"        . . l.m.@ @ n.# # o.p.[.q.r.s.t.u.v.w.x.y.- - - - - ",
"          . h z.A.@ B.C.# # D.E.F.[.[.G.H.I.J.K.L.M.N.N.N.N.",
"            . U O.=.@ @ P.# # Q.o.R.[.[.[.S.T.U.V.W.[.[.[.[.",
"              X.Y.Z.m m `.>  +.+# # ++@+#+$+%+&+[.[.[.[.[.[.",
"                r X.; *+A.`.=+-+;+>+# # # # # # ,+'+++++++)+",
"                  . !+0 ~+l @ {+> ]+^+/+d.>+>+(+# # # # # # ",
"                      . h _+:+> @ @ @ @ @ @ @ @ @ @ @ @ @ @ ",
"                        . . 3.<+[+}+|+`.@ 1+@ @ @ @ @ @ @ @ ",
"                            . ..h <+[ 2+3+z.4++ + + + + + + ",
"                                  . . . . . . . . . . . . . "};
