/* XPM */
static char * close_pressed_xpm[] = {
"27 40 303 2",
"  	c None",
". 	c #0280CD",
"+ 	c #027DC9",
"@ 	c #016EB9",
"# 	c #0163AD",
"$ 	c #005CA5",
"% 	c #0058A1",
"& 	c #0059A2",
"* 	c #0060AA",
"= 	c #016AB4",
"- 	c #0174BF",
"; 	c #027ECB",
"> 	c #027FCC",
", 	c #005FA8",
"' 	c #00539C",
") 	c #005198",
"! 	c #005199",
"~ 	c #00529B",
"{ 	c #0056A0",
"] 	c #0062AB",
"^ 	c #0177C2",
"/ 	c #016DB8",
"( 	c #00549E",
"_ 	c #00529A",
": 	c #00559E",
"< 	c #0173BF",
"[ 	c #016BB6",
"} 	c #004E92",
"| 	c #00498A",
"1 	c #004685",
"2 	c #004585",
"3 	c #0173BE",
"4 	c #00549D",
"5 	c #004687",
"6 	c #00386E",
"7 	c #003467",
"8 	c #003569",
"9 	c #003F7B",
"0 	c #004E93",
"a 	c #005597",
"b 	c #017FC7",
"c 	c #0282CE",
"d 	c #0177C3",
"e 	c #00539B",
"f 	c #005096",
"g 	c #003C74",
"h 	c #003568",
"i 	c #00386F",
"j 	c #005299",
"k 	c #006DAC",
"l 	c #0184CE",
"m 	c #0166B1",
"n 	c #005097",
"o 	c #708BA3",
"p 	c #B8CDDB",
"q 	c #C3DAE6",
"r 	c #CCE0EA",
"s 	c #D1E2EC",
"t 	c #C9D8E1",
"u 	c #B8C1CC",
"v 	c #00417D",
"w 	c #0098D3",
"x 	c #028ED5",
"y 	c #017CC8",
"z 	c #00569F",
"A 	c #004280",
"B 	c #B1C2D0",
"C 	c #EAF4F7",
"D 	c #E6F3F7",
"E 	c #ECF6FA",
"F 	c #F2FAFB",
"G 	c #E9F4F9",
"H 	c #D8ECF3",
"I 	c #F0F6F8",
"J 	c #ECEFF2",
"K 	c #00427F",
"L 	c #00569C",
"M 	c #00B9F1",
"N 	c #0288D2",
"O 	c #016FBB",
"P 	c #004B90",
"Q 	c #00376C",
"R 	c #C1CCD7",
"S 	c #C4D9E5",
"T 	c #3B7CA9",
"U 	c #4281AC",
"V 	c #C4D9E6",
"W 	c #F0F9FB",
"X 	c #BBD7E6",
"Y 	c #387BA9",
"Z 	c #317CAA",
"` 	c #E4F0F5",
" .	c #A0B2C3",
"..	c #00A8E1",
"+.	c #01A7E5",
"@.	c #005FA9",
"#.	c #2D4E76",
"$.	c #DFEDF3",
"%.	c #F2F8FB",
"&.	c #528BB2",
"*.	c #00659C",
"=.	c #5690B6",
"-.	c #D6E5EE",
";.	c #1772A4",
">.	c #0B689E",
",.	c #74ACCA",
"'.	c #F0F8FA",
").	c #CCDFEA",
"!.	c #023668",
"~.	c #004B8D",
"{.	c #005DA1",
"].	c #00BCF4",
"^.	c #028BD4",
"/.	c #0057A0",
"(.	c #003B73",
"_.	c #C8D4DD",
":.	c #EFF8FA",
"<.	c #FBFDFD",
"[.	c #EEF4F8",
"}.	c #3E7EAB",
"|.	c #2C7AA9",
"1.	c #01669C",
"2.	c #6D97B9",
"3.	c #DAECF4",
"4.	c #F7FBFD",
"5.	c #F2F8FC",
"6.	c #D4DCE3",
"7.	c #00569B",
"8.	c #00C7FB",
"9.	c #0198DC",
"0.	c #00376D",
"a.	c #D4E1E8",
"b.	c #EFF3F5",
"c.	c #FDFEFE",
"d.	c #FEFFFF",
"e.	c #EAEFF3",
"f.	c #0E6BA0",
"g.	c #457AA7",
"h.	c #CBDCE7",
"i.	c #F3FAFC",
"j.	c #FAFCFD",
"k.	c #DFE6EB",
"l.	c #005498",
"m.	c #00CCFF",
"n.	c #01A5E4",
"o.	c #004D93",
"p.	c #E8EEF2",
"q.	c #FAFDFD",
"r.	c #FFFFFF",
"s.	c #F2F4F7",
"t.	c #2877A7",
"u.	c #3B78A6",
"v.	c #CCDDE8",
"w.	c #F8FCFC",
"x.	c #EFF8FB",
"y.	c #F6FBFC",
"z.	c #E4EBEE",
"A.	c #004B8F",
"B.	c #005397",
"C.	c #01B0EC",
"D.	c #DBE2E8",
"E.	c #F9FDFD",
"F.	c #F7FBFB",
"G.	c #88AAC4",
"H.	c #1E71A3",
"I.	c #02669D",
"J.	c #87A5C1",
"K.	c #E6F1F6",
"L.	c #F2F9FC",
"M.	c #F4FAFC",
"N.	c #CDD7DE",
"O.	c #004D92",
"P.	c #00539A",
"Q.	c #01B3EE",
"R.	c #005DA7",
"S.	c #9AA5B5",
"T.	c #F4F9FA",
"U.	c #8DAEC8",
"V.	c #578AB1",
"W.	c #BACDDC",
"X.	c #086A9F",
"Y.	c #186DA1",
"Z.	c #9DBED3",
"`.	c #E7F4F9",
" +	c #E5F0F6",
".+	c #91A1B3",
"++	c #00366B",
"@+	c #00569A",
"#+	c #0169B5",
"$+	c #005098",
"%+	c #00417C",
"&+	c #CDD4DC",
"*+	c #EBF1F5",
"=+	c #0F699E",
"-+	c #2673A4",
";+	c #C5D5E1",
">+	c #FCFDFE",
",+	c #9ABBD2",
"'+	c #2B70A1",
")+	c #C9E3EE",
"!+	c #ACC3D1",
"~+	c #004888",
"{+	c #005A9E",
"]+	c #017AC6",
"^+	c #00539D",
"/+	c #004C90",
"(+	c #103C6C",
"_+	c #E1E7EC",
":+	c #EDF4F7",
"<+	c #F9FCFC",
"[+	c #EFF6F9",
"}+	c #D5E4EE",
"|+	c #B3C5D3",
"1+	c #00386D",
"2+	c #009ACD",
"3+	c #01A6E5",
"4+	c #0062AC",
"5+	c #003D77",
"6+	c #04386B",
"7+	c #B7BEC9",
"8+	c #E9EEF1",
"9+	c #FBFDFE",
"0+	c #F8FCFD",
"a+	c #F4FAFB",
"b+	c #DEE9EE",
"c+	c #90A4B7",
"d+	c #03376A",
"e+	c #00407C",
"f+	c #005094",
"g+	c #00C3F6",
"h+	c #00C9FD",
"i+	c #019BDD",
"j+	c #004889",
"k+	c #00396F",
"l+	c #596D89",
"m+	c #7A8699",
"n+	c #6C7C95",
"o+	c #657893",
"p+	c #3A5A85",
"q+	c #003D76",
"r+	c #0093C4",
"s+	c #00C0F7",
"t+	c #028FD6",
"u+	c #0066B0",
"v+	c #004F96",
"w+	c #00417E",
"x+	c #005599",
"y+	c #00BFF1",
"z+	c #00CBFE",
"A+	c #00AFEA",
"B+	c #0281CE",
"C+	c #027AC7",
"D+	c #0061AB",
"E+	c #004482",
"F+	c #003A73",
"G+	c #003A72",
"H+	c #004686",
"I+	c #004C8F",
"J+	c #00A8D8",
"K+	c #00C1F7",
"L+	c #027CC8",
"M+	c #0168B1",
"N+	c #005197",
"O+	c #00A5D6",
"P+	c #00C8FB",
"Q+	c #0196DB",
"R+	c #0284CF",
"S+	c #0085C8",
"T+	c #00559A",
"U+	c #00B9EB",
"V+	c #00CAFD",
"W+	c #019EDF",
"X+	c #0286D1",
"Y+	c #009DDC",
"Z+	c #0085C1",
"`+	c #00669A",
" @	c #005B9B",
".@	c #008DBC",
"+@	c #00C0F3",
"@@	c #00C6FA",
"#@	c #01A4E3",
"$@	c #0283CF",
"%@	c #01A1E2",
"&@	c #00AFE9",
"*@	c #00A8DC",
"=@	c #009FCF",
"-@	c #009ECC",
";@	c #00A1D0",
">@	c #00ACDD",
",@	c #00C4F7",
"'@	c #00CAFE",
")@	c #0281CD",
"!@	c #018BD4",
"~@	c #01A2E2",
"{@	c #00C3F9",
"]@	c #00CBFF",
"^@	c #00B4EE",
"/@	c #0289D2",
"(@	c #0191D8",
"_@	c #01A0E1",
":@	c #01A2E3",
"<@	c #019BDE",
"[@	c #018CD5",
"                                                      ",
"                                                      ",
"                                                      ",
"                                                      ",
"                                                      ",
"                                                      ",
"                                                      ",
"                                                      ",
"                                                      ",
"                                                      ",
"                                                      ",
"                                                      ",
"                                                      ",
". . . . . . + @ # $ % % % % & * = - ; . . . . . . . . ",
". . . . > - , ' ' ' ' ' ' ' ) ! ~ { ] ^ . . . . . . . ",
". . . > / ( ' ' ' ' ' ' ' ' ' ' ' ' _ : < . . . . . . ",
". . ; [ ' ' ' ' ' ' ! } | 1 2 } ' ' ' ' ! 3 > . . . . ",
". > / 4 ' ' ~ ' ~ 5 6 7 7 7 7 8 9 0 ' ' ' a b c . . . ",
". d % ~ ' ' e f g 7 7 7 7 7 7 7 7 h i ! j _ k l . . . ",
"> m ' ' ' ' n 6 7 7 o p q r s t u 7 7 v ) ' ! w x . . ",
"y z ' ' ' e A 7 7 B C D E F G H I J 7 7 K ' ' L M N . ",
"O ~ ' ' e P Q 7 R S T U V W X Y Z `  .7 7 ) ' ' ..+.. ",
"@.' ' ' ~ v 7 #.$.%.&.*.=.-.;.>.,.'.).!.7 ~.! ' {.].^.",
"/.' ' ' n (.7 _.:.<.[.}.*.|.1.2.3.4.5.6.7 v } ' 7.8.9.",
"~ ' ' ' 0 0.7 a.b.c.d.e.f.*.g.h.i.j.i.k.7 7 ) ' l.m.n.",
"~ ' ' ' o.7 7 p.q.r.d.s.t.*.u.v.w.x.y.z.7 7 A.~ B.m.C.",
"( ' ' ' f 7 7 D.E.r.F.G.*.H.I.J.K.L.M.N.7 7 O.' P.m.Q.",
"R.e ' ' ) 7 7 S.T.<.U.*.V.W.X.Y.Z.`. +.+7 ++) ' @+m.Q.",
"#+! ' ' $+%+7 7 &+*+=+-+;+>+,+*.'+)+!+7 7 ~+e ' {+m.C.",
"]+^+' ' ' /+Q 7 (+_+:+:+<.d.<+[+}+|+7 7 1+) ' _ 2+m.3+",
"> 4+' ' ' f 5+7 7 6+7+8+9+0+a+b+c+d+7 7 e+' ' f+g+h+i+",
". - ' ' ' ' j+k+7 7 h l+m+n+o+p+8 7 7 q+) _ _ r+m.s+t+",
". ; u+! ' ' ' v+w+7 7 7 7 7 7 7 7 7 1 v+' ' x+y+z+A+B+",
". . C+D+! ' ' ' ~ 0 E+F+++++++G+H+I+O.' ' e J+z+K+x . ",
". . . L+M+N+' ' ' ' ' ~ ! n ) _ ' ' ' ' n O+P+h+Q+. . ",
". . . . R+S+T+e ' ' ' ' ' ' ' ' ' ' ' j U+z+V+W+. . . ",
". . . . . X+Y+Z+`+f+e ~ j _ ~ _ _  @.@+@m.@@#@c . . . ",
". . . . . . $@%@&@*@=@-@-@-@-@;@>@,@m.'@].i+$@. . . . ",
". . . . . . . )@!@~@{@m.m.m.m.m.m.]@^@9./@. . . . . . ",
". . . . . . . . . . . (@_@:@:@:@<@[@. . . . . . . . . "};
