/* XPM */
static char * close_prelight_xpm[] = {
"27 40 368 2",
"  	c None",
". 	c #0280CD",
"+ 	c #027DC9",
"@ 	c #016EB9",
"# 	c #0163AD",
"$ 	c #005CA5",
"% 	c #0058A1",
"& 	c #0059A2",
"* 	c #0060AA",
"= 	c #016AB4",
"- 	c #0174BF",
"; 	c #027ECB",
"> 	c #027FCC",
", 	c #005FA8",
"' 	c #00539C",
") 	c #00529B",
"! 	c #004D93",
"~ 	c #004C90",
"{ 	c #004E94",
"] 	c #0056A0",
"^ 	c #0062AB",
"/ 	c #0177C2",
"( 	c #016DB8",
"_ 	c #00549E",
": 	c #00519A",
"< 	c #00488A",
"[ 	c #003D75",
"} 	c #003A6F",
"| 	c #003C71",
"1 	c #003B70",
"2 	c #00396E",
"3 	c #00407D",
"4 	c #004D92",
"5 	c #00569F",
"6 	c #0173BF",
"7 	c #016BB6",
"8 	c #00529A",
"9 	c #00437F",
"0 	c #004683",
"a 	c #004D8F",
"b 	c #00467F",
"c 	c #00427F",
"d 	c #0173BE",
"e 	c #00549D",
"f 	c #00498B",
"g 	c #00386E",
"h 	c #0776B0",
"i 	c #0584C2",
"j 	c #1192C3",
"k 	c #0485BF",
"l 	c #037BB8",
"m 	c #004987",
"n 	c #003A71",
"o 	c #005597",
"p 	c #017FC7",
"q 	c #0282CE",
"r 	c #0177C3",
"s 	c #00366C",
"t 	c #0771AB",
"u 	c #0F8CBF",
"v 	c #004272",
"w 	c #003E6F",
"x 	c #003C6E",
"y 	c #003A6D",
"z 	c #003F73",
"A 	c #004784",
"B 	c #004781",
"C 	c #003970",
"D 	c #006DAC",
"E 	c #0184CE",
"F 	c #0166B1",
"G 	c #004F97",
"H 	c #09A3D4",
"I 	c #106492",
"J 	c #708BA3",
"K 	c #B8CDDB",
"L 	c #C3DAE6",
"M 	c #CCE0EA",
"N 	c #D1E2EC",
"O 	c #C9D8E1",
"P 	c #B8C1CC",
"Q 	c #004783",
"R 	c #004B8C",
"S 	c #00437B",
"T 	c #003F7A",
"U 	c #0098D3",
"V 	c #028ED5",
"W 	c #017CC8",
"X 	c #00407C",
"Y 	c #004580",
"Z 	c #066FAA",
"` 	c #0F6C99",
" .	c #B1C2D0",
"..	c #EAF4F7",
"+.	c #E6F3F7",
"@.	c #ECF6FA",
"#.	c #F2FAFB",
"$.	c #E9F4F9",
"%.	c #D8ECF3",
"&.	c #F0F6F8",
"*.	c #ECEFF2",
"=.	c #0B4B86",
"-.	c #004684",
";.	c #004C8D",
">.	c #005E9B",
",.	c #00B9F1",
"'.	c #0288D2",
").	c #016FBB",
"!.	c #004C91",
"~.	c #003A70",
"{.	c #004885",
"].	c #048BC7",
"^.	c #04608F",
"/.	c #C1CCD7",
"(.	c #C4D9E5",
"_.	c #3B7CA9",
":.	c #4281AC",
"<.	c #C4D9E6",
"[.	c #F0F9FB",
"}.	c #BBD7E6",
"|.	c #387BA9",
"1.	c #317CAA",
"2.	c #E4F0F5",
"3.	c #A0B2C3",
"4.	c #004E90",
"5.	c #00386F",
"6.	c #00A8E1",
"7.	c #01A7E5",
"8.	c #005FA9",
"9.	c #004484",
"0.	c #003568",
"a.	c #025B95",
"b.	c #008EC0",
"c.	c #3B5B7F",
"d.	c #DFEDF3",
"e.	c #F2F8FB",
"f.	c #528BB2",
"g.	c #00659C",
"h.	c #5690B6",
"i.	c #D6E5EE",
"j.	c #1772A4",
"k.	c #0B689E",
"l.	c #74ACCA",
"m.	c #F0F8FA",
"n.	c #CCDFEA",
"o.	c #1F5280",
"p.	c #003468",
"q.	c #007BB5",
"r.	c #00BCF4",
"s.	c #028BD4",
"t.	c #0057A0",
"u.	c #005198",
"v.	c #003E79",
"w.	c #003366",
"x.	c #02548F",
"y.	c #108EBF",
"z.	c #006795",
"A.	c #C8D4DD",
"B.	c #EFF8FA",
"C.	c #FBFDFD",
"D.	c #EEF4F8",
"E.	c #3E7EAB",
"F.	c #2C7AA9",
"G.	c #01669C",
"H.	c #6D97B9",
"I.	c #DAECF4",
"J.	c #F7FBFD",
"K.	c #F2F8FC",
"L.	c #D4DCE3",
"M.	c #004785",
"N.	c #003A6E",
"O.	c #006497",
"P.	c #00C7FB",
"Q.	c #0198DC",
"R.	c #003B73",
"S.	c #003569",
"T.	c #015C98",
"U.	c #0D94C7",
"V.	c #004E80",
"W.	c #D5E2E9",
"X.	c #F7FBFC",
"Y.	c #FDFEFE",
"Z.	c #FEFFFF",
"`.	c #EAEFF3",
" +	c #0E6BA0",
".+	c #457AA7",
"++	c #CBDCE7",
"@+	c #F3FAFC",
"#+	c #FAFCFD",
"$+	c #DFE6EB",
"%+	c #003E76",
"&+	c #005684",
"*+	c #00CCFF",
"=+	c #01A5E4",
"-+	c #015792",
";+	c #067AB4",
">+	c #014880",
",+	c #E8EEF2",
"'+	c #FAFDFD",
")+	c #FFFFFF",
"!+	c #F2F4F7",
"~+	c #2877A7",
"{+	c #3B78A6",
"]+	c #CCDDE8",
"^+	c #F8FCFC",
"/+	c #EFF8FB",
"(+	c #F6FBFC",
"_+	c #E4EBEE",
":+	c #005582",
"<+	c #01B0EC",
"[+	c #004887",
"}+	c #0465A0",
"|+	c #004782",
"1+	c #DBE2E8",
"2+	c #F9FDFD",
"3+	c #F7FBFB",
"4+	c #88AAC4",
"5+	c #1E71A3",
"6+	c #02669D",
"7+	c #87A5C1",
"8+	c #E6F1F6",
"9+	c #F2F9FC",
"0+	c #F4FAFC",
"a+	c #CDD7DE",
"b+	c #01B3EE",
"c+	c #005DA7",
"d+	c #004988",
"e+	c #9AA5B5",
"f+	c #F4F9FA",
"g+	c #8DAEC8",
"h+	c #578AB1",
"i+	c #BACDDC",
"j+	c #086A9F",
"k+	c #186DA1",
"l+	c #9DBED3",
"m+	c #E7F4F9",
"n+	c #E5F0F6",
"o+	c #91A1B3",
"p+	c #00608E",
"q+	c #0169B5",
"r+	c #005098",
"s+	c #003D78",
"t+	c #004C8E",
"u+	c #004B8B",
"v+	c #1F4473",
"w+	c #CDD4DC",
"x+	c #EBF1F5",
"y+	c #0F699E",
"z+	c #2673A4",
"A+	c #C5D5E1",
"B+	c #FCFDFE",
"C+	c #9ABBD2",
"D+	c #2B70A1",
"E+	c #C9E3EE",
"F+	c #ACC3D1",
"G+	c #0072A3",
"H+	c #017AC6",
"I+	c #00539D",
"J+	c #004280",
"K+	c #00467E",
"L+	c #325883",
"M+	c #E1E7EC",
"N+	c #EDF4F7",
"O+	c #F9FCFC",
"P+	c #EFF6F9",
"Q+	c #D5E4EE",
"R+	c #B3C5D3",
"S+	c #05457B",
"T+	c #004077",
"U+	c #009ACD",
"V+	c #01A6E5",
"W+	c #0062AC",
"X+	c #004A8D",
"Y+	c #00366A",
"Z+	c #184F82",
"`+	c #B7BEC9",
" @	c #E9EEF1",
".@	c #FBFDFE",
"+@	c #F8FCFD",
"@@	c #F4FAFB",
"#@	c #DEE9EE",
"$@	c #90A4B7",
"%@	c #174980",
"&@	c #004577",
"*@	c #00C3F6",
"=@	c #00C9FD",
"-@	c #019BDD",
";@	c #00559E",
">@	c #003B74",
",@	c #003F76",
"'@	c #004D8B",
")@	c #004886",
"!@	c #03457D",
"~@	c #596D89",
"{@	c #7A8699",
"]@	c #6C7C95",
"^@	c #657893",
"/@	c #3A5A85",
"(@	c #0093C4",
"_@	c #00C0F7",
":@	c #028FD6",
"<@	c #0066B0",
"[@	c #004F95",
"}@	c #003467",
"|@	c #005D8D",
"1@	c #00BFF1",
"2@	c #00CBFE",
"3@	c #00AFEA",
"4@	c #0281CE",
"5@	c #027AC7",
"6@	c #0061AB",
"7@	c #004787",
"8@	c #00356A",
"9@	c #004D7D",
"0@	c #00A8D8",
"a@	c #00C1F7",
"b@	c #027CC8",
"c@	c #0168B1",
"d@	c #004C8C",
"e@	c #00366B",
"f@	c #005090",
"g@	c #003C72",
"h@	c #003F72",
"i@	c #00A5D6",
"j@	c #00C8FB",
"k@	c #0196DB",
"l@	c #0284CF",
"m@	c #0085C8",
"n@	c #005698",
"o@	c #004D7F",
"p@	c #00B9EB",
"q@	c #00CAFD",
"r@	c #019EDF",
"s@	c #0286D1",
"t@	c #009DDC",
"u@	c #0085C1",
"v@	c #00669A",
"w@	c #00477C",
"x@	c #003367",
"y@	c #00396B",
"z@	c #004B7B",
"A@	c #006B97",
"B@	c #008DBC",
"C@	c #00C0F3",
"D@	c #00C6FA",
"E@	c #01A4E3",
"F@	c #0283CF",
"G@	c #01A1E2",
"H@	c #00AFE9",
"I@	c #00A8DC",
"J@	c #009FCF",
"K@	c #009ECC",
"L@	c #00A1D0",
"M@	c #00ACDD",
"N@	c #00C4F7",
"O@	c #00CAFE",
"P@	c #0281CD",
"Q@	c #018BD4",
"R@	c #01A2E2",
"S@	c #00C3F9",
"T@	c #00CBFF",
"U@	c #00B4EE",
"V@	c #0289D2",
"W@	c #0191D8",
"X@	c #01A0E1",
"Y@	c #01A2E3",
"Z@	c #019BDE",
"`@	c #018CD5",
"                                                      ",
"                                                      ",
"                                                      ",
"                                                      ",
"                                                      ",
"                                                      ",
"                                                      ",
"                                                      ",
"                                                      ",
"                                                      ",
"                                                      ",
"                                                      ",
"                                                      ",
". . . . . . + @ # $ % % % % & * = - ; . . . . . . . . ",
". . . . > - , ' ) ) ! ~ ~ ~ ~ { ) ] ^ / . . . . . . . ",
". . . > ( _ ) : < [ } | | | | 1 2 3 4 5 6 . . . . . . ",
". . ; 7 ' 8 ~ 9 0 0 a a a a a a 0 0 b c ! d > . . . . ",
". > ( e 8 f g 0 h i j j k l a a a a m a n o p q . . . ",
". r % ) ~ s 0 t u j t v w x y z A 0 a a B C D E . . . ",
"> F ) G n 0 t j H I J K L M N O P Q A R a S T U V . . ",
"W 5 ) X Y Z j j `  ...+.@.#.$.%.&.*.=.-.;.m } >.,.'.. ",
").) !.~.{.].j ^./.(._.:.<.[.}.|.1.2.3.0 ;.a 4.5.6.7.. ",
"8.) 9.0.a.j b.c.d.e.f.g.h.i.j.k.l.m.n.o.0 a 0 p.q.r.s.",
"t.u.v.w.x.y.z.A.B.C.D.E.g.F.G.H.I.J.K.L.M.a 0 N.O.P.Q.",
") { R.S.T.U.V.W.X.Y.Z.`. +g..+++@+#+@+$+0 ;.{.%+&+*+=+",
") ! C S.-+;+>+,+'+)+Z.!+~+g.{+]+^+/+(+_+0 a 0 %+:+*+<+",
"_ ! C w.[+}+|+1+2+)+3+4+g.5+6+7+8+9+0+a+0 a {.1 :+*+b+",
"c+{ R.w.0 a d+e+f+C.g+g.h+i+j+k+l+m+n+o+m a 0 S.p+*+b+",
"q+r+s+w.0 t+u+v+w+x+y+z+A+B+C+g.D+E+F+0 a a a w.G+*+<+",
"H+I+J+w.K+a a 0 L+M+N+N+C.Z.O+P+Q+R+S+{.;.0 T+w.U+*+V+",
"> W+X+S.Y+M.;.a 0 Z+`+ @.@+@@@#@$@%@M.;.a a w.&@*@=@-@",
". - ;@>@w.,@'@a u+)@!@~@{@]@^@/@M.M.;.a M.Y+w.(@*+_@:@",
". ; <@[@p.w.w.0 a a a 0 0 M.M.{.a a a a 0.}@|@1@2@3@4@",
". . 5@6@7@8@w.0.a 0 a a a a a a a a 0 }@w.9@0@2@a@V . ",
". . . b@c@d@e@w.p.,@a a u+u+u+a f@g@w.w.h@i@j@=@k@. . ",
". . . . l@m@n@e@w.w.w.}@}@}@}@}@w.w.w.o@p@2@q@r@. . . ",
". . . . . s@t@u@v@w@Y+x@w.w.w.y@z@A@B@C@*+D@E@q . . . ",
". . . . . . F@G@H@I@J@K@K@K@K@L@M@N@*+O@r.-@F@. . . . ",
". . . . . . . P@Q@R@S@*+*+*+*+*+*+T@U@Q.V@. . . . . . ",
". . . . . . . . . . . W@X@Y@Y@Y@Z@`@. . . . . . . . . "};
