/* XPM */
static char * close_active_xpm[] = {
"27 40 420 2",
"  	c None",
". 	c #0280CD",
"+ 	c #027DC9",
"@ 	c #016EB9",
"# 	c #0163AD",
"$ 	c #005CA5",
"% 	c #0058A1",
"& 	c #0059A2",
"* 	c #0060AA",
"= 	c #016AB4",
"- 	c #0174BF",
"; 	c #027ECB",
"> 	c #027FCC",
", 	c #005FA8",
"' 	c #00539C",
") 	c #00529B",
"! 	c #004D93",
"~ 	c #004C90",
"{ 	c #004E94",
"] 	c #0056A0",
"^ 	c #0062AB",
"/ 	c #0177C2",
"( 	c #016DB8",
"_ 	c #00549E",
": 	c #00519A",
"< 	c #004A8D",
"[ 	c #003D75",
"} 	c #003A6F",
"| 	c #003C71",
"1 	c #003B70",
"2 	c #00396E",
"3 	c #00407D",
"4 	c #004D92",
"5 	c #00569F",
"6 	c #0173BF",
"7 	c #016BB6",
"8 	c #00529A",
"9 	c #00407C",
"0 	c #004881",
"a 	c #0167AB",
"b 	c #0177C0",
"c 	c #0287D1",
"d 	c #0286D1",
"e 	c #027CC7",
"f 	c #016FB5",
"g 	c #015B9A",
"h 	c #00467F",
"i 	c #00427F",
"j 	c #0173BE",
"k 	c #00549D",
"l 	c #00498B",
"m 	c #00386E",
"n 	c #015998",
"o 	c #017CC3",
"p 	c #019ADD",
"q 	c #01B6EF",
"r 	c #00AEE7",
"s 	c #009CD6",
"t 	c #0091CF",
"u 	c #0186C8",
"v 	c #0187CE",
"w 	c #0283CF",
"x 	c #0174BC",
"y 	c #005694",
"z 	c #003A71",
"A 	c #005597",
"B 	c #017FC7",
"C 	c #0282CE",
"D 	c #0177C3",
"E 	c #00366C",
"F 	c #0188D1",
"G 	c #00B9F2",
"H 	c #00BDF1",
"I 	c #0075A7",
"J 	c #004272",
"K 	c #003E6F",
"L 	c #003C6E",
"M 	c #003A6D",
"N 	c #003F73",
"O 	c #015E9E",
"P 	c #027FCB",
"Q 	c #004781",
"R 	c #003970",
"S 	c #006DAC",
"T 	c #0184CE",
"U 	c #0166B1",
"V 	c #004F97",
"W 	c #015592",
"X 	c #00BEF5",
"Y 	c #00B0E1",
"Z 	c #106492",
"` 	c #708BA3",
" .	c #B8CDDB",
"..	c #C3DAE6",
"+.	c #CCE0EA",
"@.	c #D1E2EC",
"#.	c #C9D8E1",
"$.	c #B8C1CC",
"%.	c #024A83",
"&.	c #0176BF",
"*.	c #017DC8",
"=.	c #00437B",
"-.	c #003F7A",
";.	c #0098D3",
">.	c #028ED5",
",.	c #017CC8",
"'.	c #003F75",
").	c #0179BD",
"!.	c #00B7F1",
"~.	c #00B8EA",
"{.	c #0F6C99",
"].	c #B1C2D0",
"^.	c #EAF4F7",
"/.	c #E6F3F7",
"(.	c #ECF6FA",
"_.	c #F2FAFB",
":.	c #E9F4F9",
"<.	c #D8ECF3",
"[.	c #F0F6F8",
"}.	c #ECEFF2",
"|.	c #1B548C",
"1.	c #0278C2",
"2.	c #016CB2",
"3.	c #005E9B",
"4.	c #00B9F1",
"5.	c #0288D2",
"6.	c #016FBB",
"7.	c #004C91",
"8.	c #00356A",
"9.	c #00528E",
"0.	c #01A1E0",
"a.	c #00C2F6",
"b.	c #04608F",
"c.	c #C1CCD7",
"d.	c #C4D9E5",
"e.	c #3B7CA9",
"f.	c #4281AC",
"g.	c #C4D9E6",
"h.	c #F0F9FB",
"i.	c #BBD7E6",
"j.	c #387BA9",
"k.	c #317CAA",
"l.	c #E4F0F5",
"m.	c #A0B2C3",
"n.	c #015796",
"o.	c #027AC5",
"p.	c #004E8A",
"q.	c #00386F",
"r.	c #00A8E1",
"s.	c #01A7E5",
"t.	c #005FA9",
"u.	c #004484",
"v.	c #003467",
"w.	c #016FAF",
"x.	c #00B8F1",
"y.	c #008EC0",
"z.	c #3B5B7F",
"A.	c #DFEDF3",
"B.	c #F2F8FB",
"C.	c #528BB2",
"D.	c #00659C",
"E.	c #5690B6",
"F.	c #D6E5EE",
"G.	c #1772A4",
"H.	c #0B689E",
"I.	c #74ACCA",
"J.	c #F0F8FA",
"K.	c #CCDFEA",
"L.	c #23547F",
"M.	c #0175BD",
"N.	c #0163A5",
"O.	c #003468",
"P.	c #007BB5",
"Q.	c #00BCF4",
"R.	c #028BD4",
"S.	c #0057A0",
"T.	c #005198",
"U.	c #003E79",
"V.	c #003366",
"W.	c #0188CC",
"X.	c #00BBF1",
"Y.	c #006795",
"Z.	c #C8D4DD",
"`.	c #EFF8FA",
" +	c #FBFDFD",
".+	c #EEF4F8",
"++	c #3E7EAB",
"@+	c #2C7AA9",
"#+	c #01669C",
"$+	c #6D97B9",
"%+	c #DAECF4",
"&+	c #F7FBFD",
"*+	c #F2F8FC",
"=+	c #D4DCE3",
"-+	c #015897",
";+	c #016AAF",
">+	c #003A6E",
",+	c #006497",
"'+	c #00C7FB",
")+	c #0198DC",
"!+	c #003B73",
"~+	c #0294D9",
"{+	c #00ACE3",
"]+	c #004E80",
"^+	c #D5E2E9",
"/+	c #F7FBFC",
"(+	c #FDFEFE",
"_+	c #FEFFFF",
":+	c #EAEFF3",
"<+	c #0E6BA0",
"[+	c #457AA7",
"}+	c #CBDCE7",
"|+	c #F3FAFC",
"1+	c #FAFCFD",
"2+	c #DFE6EB",
"3+	c #034981",
"4+	c #016EB5",
"5+	c #003C72",
"6+	c #005684",
"7+	c #00CCFF",
"8+	c #01A5E4",
"9+	c #0293D8",
"0+	c #01A1DA",
"a+	c #00437A",
"b+	c #E8EEF2",
"c+	c #FAFDFD",
"d+	c #FFFFFF",
"e+	c #F2F4F7",
"f+	c #2877A7",
"g+	c #3B78A6",
"h+	c #CCDDE8",
"i+	c #F8FCFC",
"j+	c #EFF8FB",
"k+	c #F6FBFC",
"l+	c #E4EBEE",
"m+	c #044880",
"n+	c #005582",
"o+	c #01B0EC",
"p+	c #0282CB",
"q+	c #0189CF",
"r+	c #004880",
"s+	c #DBE2E8",
"t+	c #F9FDFD",
"u+	c #F7FBFB",
"v+	c #88AAC4",
"w+	c #1E71A3",
"x+	c #02669D",
"y+	c #87A5C1",
"z+	c #E6F1F6",
"A+	c #F2F9FC",
"B+	c #F4FAFC",
"C+	c #CDD7DE",
"D+	c #01528F",
"E+	c #01B3EE",
"F+	c #005DA7",
"G+	c #016CB1",
"H+	c #005695",
"I+	c #9AA5B5",
"J+	c #F4F9FA",
"K+	c #8DAEC8",
"L+	c #578AB1",
"M+	c #BACDDC",
"N+	c #086A9F",
"O+	c #186DA1",
"P+	c #9DBED3",
"Q+	c #E7F4F9",
"R+	c #E5F0F6",
"S+	c #91A1B3",
"T+	c #0165A7",
"U+	c #003569",
"V+	c #00608E",
"W+	c #0169B5",
"X+	c #005098",
"Y+	c #003D78",
"Z+	c #015997",
"`+	c #0179C3",
" @	c #1F4473",
".@	c #CDD4DC",
"+@	c #EBF1F5",
"@@	c #0F699E",
"#@	c #2673A4",
"$@	c #C5D5E1",
"%@	c #FCFDFE",
"&@	c #9ABBD2",
"*@	c #2B70A1",
"=@	c #C9E3EE",
"-@	c #ACC3D1",
";@	c #0C4F88",
">@	c #027DC8",
",@	c #027CC8",
"'@	c #015694",
")@	c #0072A3",
"!@	c #017AC6",
"~@	c #00539D",
"{@	c #004280",
"]@	c #00467E",
"^@	c #0178C3",
"/@	c #0169AE",
"(@	c #325883",
"_@	c #E1E7EC",
":@	c #EDF4F7",
"<@	c #F9FCFC",
"[@	c #EFF6F9",
"}@	c #D5E4EE",
"|@	c #B3C5D3",
"1@	c #05457B",
"2@	c #0171B8",
"3@	c #004077",
"4@	c #009ACD",
"5@	c #01A6E5",
"6@	c #0062AC",
"7@	c #00366A",
"8@	c #0160A1",
"9@	c #027ECA",
"0@	c #184F82",
"a@	c #B7BEC9",
"b@	c #E9EEF1",
"c@	c #FBFDFE",
"d@	c #F8FCFD",
"e@	c #F4FAFB",
"f@	c #DEE9EE",
"g@	c #90A4B7",
"h@	c #1B4A7F",
"i@	c #016FB6",
"j@	c #004577",
"k@	c #00C3F6",
"l@	c #00C9FD",
"m@	c #019BDD",
"n@	c #00559E",
"o@	c #003B74",
"p@	c #003D73",
"q@	c #016DB4",
"r@	c #0171B9",
"s@	c #03457D",
"t@	c #596D89",
"u@	c #7A8699",
"v@	c #788599",
"w@	c #708197",
"x@	c #496385",
"y@	c #0A538E",
"z@	c #0278C1",
"A@	c #0160A2",
"B@	c #0093C4",
"C@	c #00C0F7",
"D@	c #028FD6",
"E@	c #0066B0",
"F@	c #004F95",
"G@	c #0164A7",
"H@	c #016DB3",
"I@	c #015C9D",
"J@	c #015E9F",
"K@	c #0170B7",
"L@	c #027BC6",
"M@	c #005998",
"N@	c #003568",
"O@	c #005D8D",
"P@	c #00BFF1",
"Q@	c #00CBFE",
"R@	c #00AFEA",
"S@	c #0281CE",
"T@	c #027AC7",
"U@	c #0061AB",
"V@	c #004787",
"W@	c #005592",
"X@	c #004F8A",
"Y@	c #004D7D",
"Z@	c #00A8D8",
"`@	c #00C1F7",
" #	c #0168B1",
".#	c #004C8C",
"+#	c #00366B",
"@#	c #003F76",
"##	c #00518D",
"$#	c #015C9B",
"%#	c #015F9F",
"&#	c #004E88",
"*#	c #003F72",
"=#	c #00A5D6",
"-#	c #00C8FB",
";#	c #0196DB",
">#	c #0284CF",
",#	c #0085C8",
"'#	c #005698",
")#	c #004D7F",
"!#	c #00B9EB",
"~#	c #00CAFD",
"{#	c #019EDF",
"]#	c #009DDC",
"^#	c #0085C1",
"/#	c #00669A",
"(#	c #00477C",
"_#	c #003367",
":#	c #00396B",
"<#	c #004B7B",
"[#	c #006B97",
"}#	c #008DBC",
"|#	c #00C0F3",
"1#	c #00C6FA",
"2#	c #01A4E3",
"3#	c #01A1E2",
"4#	c #00AFE9",
"5#	c #00A8DC",
"6#	c #009FCF",
"7#	c #009ECC",
"8#	c #00A1D0",
"9#	c #00ACDD",
"0#	c #00C4F7",
"a#	c #00CAFE",
"b#	c #0281CD",
"c#	c #018BD4",
"d#	c #01A2E2",
"e#	c #00C3F9",
"f#	c #00CBFF",
"g#	c #00B4EE",
"h#	c #0289D2",
"i#	c #0191D8",
"j#	c #01A0E1",
"k#	c #01A2E3",
"l#	c #019BDE",
"m#	c #018CD5",
"                                                      ",
"                                                      ",
"                                                      ",
"                                                      ",
"                                                      ",
"                                                      ",
"                                                      ",
"                                                      ",
"                                                      ",
"                                                      ",
"                                                      ",
"                                                      ",
"                                                      ",
". . . . . . + @ # $ % % % % & * = - ; . . . . . . . . ",
". . . . > - , ' ) ) ! ~ ~ ~ ~ { ) ] ^ / . . . . . . . ",
". . . > ( _ ) : < [ } | | | | 1 2 3 4 5 6 . . . . . . ",
". . ; 7 ' 8 ~ 9 0 a b c c c d e f g h i ! j > . . . . ",
". > ( k 8 l m n o p q r s t u v w . x y z A B C . . . ",
". D % ) ~ E g F G H I J K L M N O . . P Q R S T . . . ",
"> U ) V z W v X Y Z `  ...+.@.#.$.%.&.. *.=.-.;.>.. . ",
",.5 ) 9 '.).!.~.{.].^./.(._.:.<.[.}.|.1.. 2.} 3.4.5.. ",
"6.) 7.8.9.0.a.b.c.d.e.f.g.h.i.j.k.l.m.n.; o.p.q.r.s.. ",
"t.) u.v.w.x.y.z.A.B.C.D.E.F.G.H.I.J.K.L.M.. N.O.P.Q.R.",
"S.T.U.V.W.X.Y.Z.`. +.+++D.@+#+$+%+&+*+=+-+. ;+>+,+'+)+",
") { !+V.~+{+]+^+/+(+_+:+<+D.[+}+|+1+|+2+3+. 4+5+6+7+8+",
") ! R V.9+0+a+b+c+d+_+e+f+D.g+h+i+j+k+l+m+. 4+5+n+7+o+",
"_ ! R V.p+q+r+s+t+d+u+v+D.w+x+y+z+A+B+C+D+. 2.1 n+7+E+",
"F+{ !+V.G+C H+I+J+ +K+D.L+M+N+O+P+Q+R+S+2.. T+U+V+7+E+",
"W+X+Y+V.Z+. `+ @.@+@@@#@$@%@&@D.*@=@-@;@>@,@'@V.)@7+o+",
"!@~@{@V.]@^@. /@(@_@:@:@ +_+<@[@}@|@1@2@. M.3@V.4@7+5@",
"> 6@< U+7@8@9@P /@0@a@b@c@d@e@f@g@h@i@> . y V.j@k@l@m@",
". - n@o@V.p@q@. P r@s@t@u@v@w@x@y@z@. . A@7@V.B@7+C@D@",
". ; E@F@O.V.V.G@9@. . H@I@I@J@K@P . L@M@N@v.O@P@Q@R@S@",
". . T@U@V@8.V.N@W@2@,@. . . . ; o.i@X@v.V.Y@Z@Q@`@>.. ",
". . . ,@ #.#+#V.O.@###$#%#%#%#Z+&#5+V.V.*#=#-#l@;#. . ",
". . . . >#,#'#+#V.V.V.v.v.v.v.v.V.V.V.)#!#Q@~#{#. . . ",
". . . . . d ]#^#/#(#7@_#V.V.V.:#<#[#}#|#7+1#2#C . . . ",
". . . . . . w 3#4#5#6#7#7#7#7#8#9#0#7+a#Q.m@w . . . . ",
". . . . . . . b#c#d#e#7+7+7+7+7+7+f#g#)+h#. . . . . . ",
". . . . . . . . . . . i#j#k#k#k#l#m#. . . . . . . . . "};
