/* XPM */
static char * hide_active_xpm[] = {
"27 40 394 2",
"  	c None",
". 	c #0280CD",
"+ 	c #027DC9",
"@ 	c #016EB9",
"# 	c #0163AD",
"$ 	c #005CA5",
"% 	c #0058A1",
"& 	c #0059A2",
"* 	c #0060AA",
"= 	c #016AB4",
"- 	c #0174BF",
"; 	c #027ECB",
"> 	c #027FCC",
", 	c #005FA8",
"' 	c #00539C",
") 	c #00529B",
"! 	c #004D93",
"~ 	c #004C90",
"{ 	c #004E94",
"] 	c #0056A0",
"^ 	c #0062AB",
"/ 	c #0177C2",
"( 	c #016DB8",
"_ 	c #00549E",
": 	c #00519A",
"< 	c #004A8D",
"[ 	c #003D75",
"} 	c #003A6F",
"| 	c #003C71",
"1 	c #003B70",
"2 	c #00396E",
"3 	c #00407D",
"4 	c #004D92",
"5 	c #00569F",
"6 	c #0173BF",
"7 	c #016BB6",
"8 	c #00529A",
"9 	c #00407C",
"0 	c #004881",
"a 	c #0167AB",
"b 	c #0177C0",
"c 	c #0287D1",
"d 	c #0286D1",
"e 	c #027CC7",
"f 	c #016FB5",
"g 	c #015B9A",
"h 	c #00467F",
"i 	c #00427F",
"j 	c #0173BE",
"k 	c #00549D",
"l 	c #00498B",
"m 	c #00386E",
"n 	c #015998",
"o 	c #017CC3",
"p 	c #019ADD",
"q 	c #01B6EF",
"r 	c #00AEE7",
"s 	c #009CD6",
"t 	c #0091CF",
"u 	c #0186C8",
"v 	c #0187CE",
"w 	c #0283CF",
"x 	c #0174BC",
"y 	c #005694",
"z 	c #003A71",
"A 	c #005597",
"B 	c #017FC7",
"C 	c #0282CE",
"D 	c #0177C3",
"E 	c #00366C",
"F 	c #0188D1",
"G 	c #00B9F2",
"H 	c #00BDF1",
"I 	c #0075A7",
"J 	c #004272",
"K 	c #003E6F",
"L 	c #003C6E",
"M 	c #003A6D",
"N 	c #003F73",
"O 	c #015E9E",
"P 	c #027FCB",
"Q 	c #004781",
"R 	c #003970",
"S 	c #006DAC",
"T 	c #0184CE",
"U 	c #0166B1",
"V 	c #004F97",
"W 	c #015592",
"X 	c #00BEF5",
"Y 	c #00B0E1",
"Z 	c #106492",
"` 	c #708BA3",
" .	c #B8CDDB",
"..	c #C3DAE6",
"+.	c #CCE0EA",
"@.	c #D1E2EC",
"#.	c #C9D8E1",
"$.	c #B8C1CC",
"%.	c #024A83",
"&.	c #0176BF",
"*.	c #017DC8",
"=.	c #00437B",
"-.	c #003F7A",
";.	c #0098D3",
">.	c #028ED5",
",.	c #017CC8",
"'.	c #003F75",
").	c #0179BD",
"!.	c #00B7F1",
"~.	c #00B8EA",
"{.	c #0F6C99",
"].	c #B1C2D0",
"^.	c #EDF6F8",
"/.	c #EDF6F9",
"(.	c #F2F9FB",
"_.	c #F4FBFC",
":.	c #EBF5F9",
"<.	c #D8ECF3",
"[.	c #F0F6F8",
"}.	c #ECEFF2",
"|.	c #1B548C",
"1.	c #0278C2",
"2.	c #016CB2",
"3.	c #005E9B",
"4.	c #00B9F1",
"5.	c #0288D2",
"6.	c #016FBB",
"7.	c #004C91",
"8.	c #00356A",
"9.	c #00528E",
"0.	c #01A1E0",
"a.	c #00C2F6",
"b.	c #04608F",
"c.	c #C1CCD7",
"d.	c #C4D9E5",
"e.	c #F1F4F7",
"f.	c #F9FBFC",
"g.	c #FCFEFE",
"h.	c #FDFEFE",
"i.	c #FCFDFE",
"j.	c #F3F5F8",
"k.	c #F0F4F6",
"l.	c #E4F0F5",
"m.	c #A0B2C3",
"n.	c #015796",
"o.	c #027AC5",
"p.	c #004E8A",
"q.	c #00386F",
"r.	c #00A8E1",
"s.	c #01A7E5",
"t.	c #005FA9",
"u.	c #004484",
"v.	c #003467",
"w.	c #016FAF",
"x.	c #00B8F1",
"y.	c #008EC0",
"z.	c #3B5B7F",
"A.	c #DFEDF3",
"B.	c #F2F8FB",
"C.	c #F7F9FB",
"D.	c #FAFBFC",
"E.	c #F3F7F9",
"F.	c #F0F8FA",
"G.	c #CCDFEA",
"H.	c #23547F",
"I.	c #0175BD",
"J.	c #0163A5",
"K.	c #003468",
"L.	c #007BB5",
"M.	c #00BCF4",
"N.	c #028BD4",
"O.	c #0057A0",
"P.	c #005198",
"Q.	c #003E79",
"R.	c #003366",
"S.	c #0188CC",
"T.	c #00BBF1",
"U.	c #006795",
"V.	c #C8D4DD",
"W.	c #EFF8FA",
"X.	c #FBFDFD",
"Y.	c #FCFDFD",
"Z.	c #F9FCFD",
"`.	c #F7FBFD",
" +	c #F2F8FC",
".+	c #D4DCE3",
"++	c #015897",
"@+	c #016AAF",
"#+	c #003A6E",
"$+	c #006497",
"%+	c #00C7FB",
"&+	c #0198DC",
"*+	c #003B73",
"=+	c #0294D9",
"-+	c #00ACE3",
";+	c #004E80",
">+	c #D5E2E9",
",+	c #F7FBFC",
"'+	c #F3FAFC",
")+	c #DFE6EB",
"!+	c #034981",
"~+	c #016EB5",
"{+	c #003C72",
"]+	c #005684",
"^+	c #00CCFF",
"/+	c #01A5E4",
"(+	c #0293D8",
"_+	c #01A1DA",
":+	c #00437A",
"<+	c #E8EEF2",
"[+	c #FAFDFD",
"}+	c #FBFDFE",
"|+	c #F6FBFC",
"1+	c #E4EBEE",
"2+	c #044880",
"3+	c #005582",
"4+	c #01B0EC",
"5+	c #0282CB",
"6+	c #0189CF",
"7+	c #004880",
"8+	c #DBE2E8",
"9+	c #F9FDFD",
"0+	c #E3E8ED",
"a+	c #3C73A3",
"b+	c #01659C",
"c+	c #DCE2E9",
"d+	c #F4FAFC",
"e+	c #CDD7DE",
"f+	c #01528F",
"g+	c #01B3EE",
"h+	c #005DA7",
"i+	c #016CB1",
"j+	c #005695",
"k+	c #9AA5B5",
"l+	c #F4F9FA",
"m+	c #B4C1D1",
"n+	c #1A6A9F",
"o+	c #05669D",
"p+	c #03659C",
"q+	c #206B9F",
"r+	c #B6C2D3",
"s+	c #E5F0F6",
"t+	c #91A1B3",
"u+	c #0165A7",
"v+	c #003569",
"w+	c #00608E",
"x+	c #0169B5",
"y+	c #005098",
"z+	c #003D78",
"A+	c #015997",
"B+	c #0179C3",
"C+	c #1F4473",
"D+	c #CDD4DC",
"E+	c #D5DCE5",
"F+	c #CBD3DE",
"G+	c #BEC8D6",
"H+	c #B9C5D4",
"I+	c #B2BFD0",
"J+	c #C2CCD9",
"K+	c #CBD4DF",
"L+	c #C7D4E0",
"M+	c #ACC3D1",
"N+	c #0C4F88",
"O+	c #027DC8",
"P+	c #027CC8",
"Q+	c #015694",
"R+	c #0072A3",
"S+	c #017AC6",
"T+	c #00539D",
"U+	c #004280",
"V+	c #00467E",
"W+	c #0178C3",
"X+	c #0169AE",
"Y+	c #325883",
"Z+	c #E1E7EC",
"`+	c #EDF4F7",
" @	c #F2F7F9",
".@	c #F2F8FA",
"+@	c #DDE9F1",
"@@	c #B3C5D3",
"#@	c #05457B",
"$@	c #0171B8",
"%@	c #004077",
"&@	c #009ACD",
"*@	c #01A6E5",
"=@	c #0062AC",
"-@	c #00366A",
";@	c #0160A1",
">@	c #027ECA",
",@	c #184F82",
"'@	c #B7BEC9",
")@	c #E9EEF1",
"!@	c #F8FCFD",
"~@	c #F4FAFB",
"{@	c #DEE9EE",
"]@	c #90A4B7",
"^@	c #1B4A7F",
"/@	c #016FB6",
"(@	c #004577",
"_@	c #00C3F6",
":@	c #00C9FD",
"<@	c #019BDD",
"[@	c #00559E",
"}@	c #003B74",
"|@	c #003D73",
"1@	c #016DB4",
"2@	c #0171B9",
"3@	c #03457D",
"4@	c #596D89",
"5@	c #7A8699",
"6@	c #788599",
"7@	c #708197",
"8@	c #496385",
"9@	c #0A538E",
"0@	c #0278C1",
"a@	c #0160A2",
"b@	c #0093C4",
"c@	c #00C0F7",
"d@	c #028FD6",
"e@	c #0066B0",
"f@	c #004F95",
"g@	c #0164A7",
"h@	c #016DB3",
"i@	c #015C9D",
"j@	c #015E9F",
"k@	c #0170B7",
"l@	c #027BC6",
"m@	c #005998",
"n@	c #003568",
"o@	c #005D8D",
"p@	c #00BFF1",
"q@	c #00CBFE",
"r@	c #00AFEA",
"s@	c #0281CE",
"t@	c #027AC7",
"u@	c #0061AB",
"v@	c #004787",
"w@	c #005592",
"x@	c #004F8A",
"y@	c #004D7D",
"z@	c #00A8D8",
"A@	c #00C1F7",
"B@	c #0168B1",
"C@	c #004C8C",
"D@	c #00366B",
"E@	c #003F76",
"F@	c #00518D",
"G@	c #015C9B",
"H@	c #015F9F",
"I@	c #004E88",
"J@	c #003F72",
"K@	c #00A5D6",
"L@	c #00C8FB",
"M@	c #0196DB",
"N@	c #0284CF",
"O@	c #0085C8",
"P@	c #005698",
"Q@	c #004D7F",
"R@	c #00B9EB",
"S@	c #00CAFD",
"T@	c #019EDF",
"U@	c #009DDC",
"V@	c #0085C1",
"W@	c #00669A",
"X@	c #00477C",
"Y@	c #003367",
"Z@	c #00396B",
"`@	c #004B7B",
" #	c #006B97",
".#	c #008DBC",
"+#	c #00C0F3",
"@#	c #00C6FA",
"##	c #01A4E3",
"$#	c #01A1E2",
"%#	c #00AFE9",
"&#	c #00A8DC",
"*#	c #009FCF",
"=#	c #009ECC",
"-#	c #00A1D0",
";#	c #00ACDD",
">#	c #00C4F7",
",#	c #00CAFE",
"'#	c #0281CD",
")#	c #018BD4",
"!#	c #01A2E2",
"~#	c #00C3F9",
"{#	c #00CBFF",
"]#	c #00B4EE",
"^#	c #0289D2",
"/#	c #0191D8",
"(#	c #01A0E1",
"_#	c #01A2E3",
":#	c #019BDE",
"<#	c #018CD5",
"                                                      ",
"                                                      ",
"                                                      ",
"                                                      ",
"                                                      ",
"                                                      ",
"                                                      ",
"                                                      ",
"                                                      ",
"                                                      ",
"                                                      ",
"                                                      ",
"                                                      ",
". . . . . . + @ # $ % % % % & * = - ; . . . . . . . . ",
". . . . > - , ' ) ) ! ~ ~ ~ ~ { ) ] ^ / . . . . . . . ",
". . . > ( _ ) : < [ } | | | | 1 2 3 4 5 6 . . . . . . ",
". . ; 7 ' 8 ~ 9 0 a b c c c d e f g h i ! j > . . . . ",
". > ( k 8 l m n o p q r s t u v w . x y z A B C . . . ",
". D % ) ~ E g F G H I J K L M N O . . P Q R S T . . . ",
"> U ) V z W v X Y Z `  ...+.@.#.$.%.&.. *.=.-.;.>.. . ",
",.5 ) 9 '.).!.~.{.].^./.(._.:.<.[.}.|.1.. 2.} 3.4.5.. ",
"6.) 7.8.9.0.a.b.c.d.e.f.g.h.i.j.k.l.m.n.; o.p.q.r.s.. ",
"t.) u.v.w.x.y.z.A.B.C.h.h.h.h.D.E.F.G.H.I.. J.K.L.M.N.",
"O.P.Q.R.S.T.U.V.W.X.g.h.h.h.h.Y.Z.`. +.+++. @+#+$+%+&+",
") { *+R.=+-+;+>+,+h.h.h.h.h.h.h.g.X.'+)+!+. ~+{+]+^+/+",
") ! R R.(+_+:+<+[+h.h.h.h.h.h.h.h.}+|+1+2+. ~+{+3+^+4+",
"_ ! R R.5+6+7+8+9+0+a+b+b+b+b+b+b+c+d+e+f+. 2.1 3+^+g+",
"h+{ *+R.i+C j+k+l+m+n+o+b+b+b+p+q+r+s+t+2.. u+v+w+^+g+",
"x+y+z+R.A+. B+C+D+E+F+G+H+H+I+J+K+L+M+N+O+P+Q+R.R+^+4+",
"S+T+U+R.V+W+. X+Y+Z+`+ @g.h.X..@+@@@#@$@. I.%@R.&@^+*@",
"> =@< v+-@;@>@P X+,@'@)@}+!@~@{@]@^@/@> . y R.(@_@:@<@",
". - [@}@R.|@1@. P 2@3@4@5@6@7@8@9@0@. . a@-@R.b@^+c@d@",
". ; e@f@K.R.R.g@>@. . h@i@i@j@k@P . l@m@n@v.o@p@q@r@s@",
". . t@u@v@8.R.n@w@$@P+. . . . ; o./@x@v.R.y@z@q@A@>.. ",
". . . P+B@C@D@R.K.E@F@G@H@H@H@A+I@{+R.R.J@K@L@:@M@. . ",
". . . . N@O@P@D@R.R.R.v.v.v.v.v.R.R.R.Q@R@q@S@T@. . . ",
". . . . . d U@V@W@X@-@Y@R.R.R.Z@`@ #.#+#^+@###C . . . ",
". . . . . . w $#%#&#*#=#=#=#=#-#;#>#^+,#M.<@w . . . . ",
". . . . . . . '#)#!#~#^+^+^+^+^+^+{#]#&+^#. . . . . . ",
". . . . . . . . . . . /#(#_#_#_#:#<#. . . . . . . . . "};
