/* XPM */
static char * hide_prelight_xpm[] = {
"27 40 342 2",
"  	c None",
". 	c #0280CD",
"+ 	c #027DC9",
"@ 	c #016EB9",
"# 	c #0163AD",
"$ 	c #005CA5",
"% 	c #0058A1",
"& 	c #0059A2",
"* 	c #0060AA",
"= 	c #016AB4",
"- 	c #0174BF",
"; 	c #027ECB",
"> 	c #027FCC",
", 	c #005FA8",
"' 	c #00539C",
") 	c #00529B",
"! 	c #004D93",
"~ 	c #004C90",
"{ 	c #004E94",
"] 	c #0056A0",
"^ 	c #0062AB",
"/ 	c #0177C2",
"( 	c #016DB8",
"_ 	c #00549E",
": 	c #00519A",
"< 	c #00488A",
"[ 	c #003D75",
"} 	c #003A6F",
"| 	c #003C71",
"1 	c #003B70",
"2 	c #00396E",
"3 	c #00407D",
"4 	c #004D92",
"5 	c #00569F",
"6 	c #0173BF",
"7 	c #016BB6",
"8 	c #00529A",
"9 	c #00437F",
"0 	c #004683",
"a 	c #004D8F",
"b 	c #00467F",
"c 	c #00427F",
"d 	c #0173BE",
"e 	c #00549D",
"f 	c #00498B",
"g 	c #00386E",
"h 	c #0776B0",
"i 	c #0584C2",
"j 	c #1192C3",
"k 	c #0485BF",
"l 	c #037BB8",
"m 	c #004987",
"n 	c #003A71",
"o 	c #005597",
"p 	c #017FC7",
"q 	c #0282CE",
"r 	c #0177C3",
"s 	c #00366C",
"t 	c #0771AB",
"u 	c #0F8CBF",
"v 	c #004272",
"w 	c #003E6F",
"x 	c #003C6E",
"y 	c #003A6D",
"z 	c #003F73",
"A 	c #004784",
"B 	c #004781",
"C 	c #003970",
"D 	c #006DAC",
"E 	c #0184CE",
"F 	c #0166B1",
"G 	c #004F97",
"H 	c #09A3D4",
"I 	c #106492",
"J 	c #708BA3",
"K 	c #B8CDDB",
"L 	c #C3DAE6",
"M 	c #CCE0EA",
"N 	c #D1E2EC",
"O 	c #C9D8E1",
"P 	c #B8C1CC",
"Q 	c #004783",
"R 	c #004B8C",
"S 	c #00437B",
"T 	c #003F7A",
"U 	c #0098D3",
"V 	c #028ED5",
"W 	c #017CC8",
"X 	c #00407C",
"Y 	c #004580",
"Z 	c #066FAA",
"` 	c #0F6C99",
" .	c #B1C2D0",
"..	c #EDF6F8",
"+.	c #EDF6F9",
"@.	c #F2F9FB",
"#.	c #F4FBFC",
"$.	c #EBF5F9",
"%.	c #D8ECF3",
"&.	c #F0F6F8",
"*.	c #ECEFF2",
"=.	c #0B4B86",
"-.	c #004684",
";.	c #004C8D",
">.	c #005E9B",
",.	c #00B9F1",
"'.	c #0288D2",
").	c #016FBB",
"!.	c #004C91",
"~.	c #003A70",
"{.	c #004885",
"].	c #048BC7",
"^.	c #04608F",
"/.	c #C1CCD7",
"(.	c #C4D9E5",
"_.	c #F1F4F7",
":.	c #F9FBFC",
"<.	c #FCFEFE",
"[.	c #FDFEFE",
"}.	c #FCFDFE",
"|.	c #F3F5F8",
"1.	c #F0F4F6",
"2.	c #E4F0F5",
"3.	c #A0B2C3",
"4.	c #004E90",
"5.	c #00386F",
"6.	c #00A8E1",
"7.	c #01A7E5",
"8.	c #005FA9",
"9.	c #004484",
"0.	c #003568",
"a.	c #025B95",
"b.	c #008EC0",
"c.	c #3B5B7F",
"d.	c #DFEDF3",
"e.	c #F2F8FB",
"f.	c #F7F9FB",
"g.	c #FAFBFC",
"h.	c #F3F7F9",
"i.	c #F0F8FA",
"j.	c #CCDFEA",
"k.	c #1F5280",
"l.	c #003468",
"m.	c #007BB5",
"n.	c #00BCF4",
"o.	c #028BD4",
"p.	c #0057A0",
"q.	c #005198",
"r.	c #003E79",
"s.	c #003366",
"t.	c #02548F",
"u.	c #108EBF",
"v.	c #006795",
"w.	c #C8D4DD",
"x.	c #EFF8FA",
"y.	c #FBFDFD",
"z.	c #FCFDFD",
"A.	c #F9FCFD",
"B.	c #F7FBFD",
"C.	c #F2F8FC",
"D.	c #D4DCE3",
"E.	c #004785",
"F.	c #003A6E",
"G.	c #006497",
"H.	c #00C7FB",
"I.	c #0198DC",
"J.	c #003B73",
"K.	c #003569",
"L.	c #015C98",
"M.	c #0D94C7",
"N.	c #004E80",
"O.	c #D5E2E9",
"P.	c #F7FBFC",
"Q.	c #F3FAFC",
"R.	c #DFE6EB",
"S.	c #003E76",
"T.	c #005684",
"U.	c #00CCFF",
"V.	c #01A5E4",
"W.	c #015792",
"X.	c #067AB4",
"Y.	c #014880",
"Z.	c #E8EEF2",
"`.	c #FAFDFD",
" +	c #FBFDFE",
".+	c #F6FBFC",
"++	c #E4EBEE",
"@+	c #005582",
"#+	c #01B0EC",
"$+	c #004887",
"%+	c #0465A0",
"&+	c #004782",
"*+	c #DBE2E8",
"=+	c #F9FDFD",
"-+	c #E3E8ED",
";+	c #3C73A3",
">+	c #01659C",
",+	c #DCE2E9",
"'+	c #F4FAFC",
")+	c #CDD7DE",
"!+	c #01B3EE",
"~+	c #005DA7",
"{+	c #004988",
"]+	c #9AA5B5",
"^+	c #F4F9FA",
"/+	c #B4C1D1",
"(+	c #1A6A9F",
"_+	c #05669D",
":+	c #03659C",
"<+	c #206B9F",
"[+	c #B6C2D3",
"}+	c #E5F0F6",
"|+	c #91A1B3",
"1+	c #00608E",
"2+	c #0169B5",
"3+	c #005098",
"4+	c #003D78",
"5+	c #004C8E",
"6+	c #004B8B",
"7+	c #1F4473",
"8+	c #CDD4DC",
"9+	c #D5DCE5",
"0+	c #CBD3DE",
"a+	c #BEC8D6",
"b+	c #B9C5D4",
"c+	c #B2BFD0",
"d+	c #C2CCD9",
"e+	c #CBD4DF",
"f+	c #C7D4E0",
"g+	c #ACC3D1",
"h+	c #0072A3",
"i+	c #017AC6",
"j+	c #00539D",
"k+	c #004280",
"l+	c #00467E",
"m+	c #325883",
"n+	c #E1E7EC",
"o+	c #EDF4F7",
"p+	c #F2F7F9",
"q+	c #F2F8FA",
"r+	c #DDE9F1",
"s+	c #B3C5D3",
"t+	c #05457B",
"u+	c #004077",
"v+	c #009ACD",
"w+	c #01A6E5",
"x+	c #0062AC",
"y+	c #004A8D",
"z+	c #00366A",
"A+	c #184F82",
"B+	c #B7BEC9",
"C+	c #E9EEF1",
"D+	c #F8FCFD",
"E+	c #F4FAFB",
"F+	c #DEE9EE",
"G+	c #90A4B7",
"H+	c #174980",
"I+	c #004577",
"J+	c #00C3F6",
"K+	c #00C9FD",
"L+	c #019BDD",
"M+	c #00559E",
"N+	c #003B74",
"O+	c #003F76",
"P+	c #004D8B",
"Q+	c #004886",
"R+	c #03457D",
"S+	c #596D89",
"T+	c #7A8699",
"U+	c #788599",
"V+	c #708197",
"W+	c #496385",
"X+	c #0093C4",
"Y+	c #00C0F7",
"Z+	c #028FD6",
"`+	c #0066B0",
" @	c #004F95",
".@	c #003467",
"+@	c #005D8D",
"@@	c #00BFF1",
"#@	c #00CBFE",
"$@	c #00AFEA",
"%@	c #0281CE",
"&@	c #027AC7",
"*@	c #0061AB",
"=@	c #004787",
"-@	c #00356A",
";@	c #004D7D",
">@	c #00A8D8",
",@	c #00C1F7",
"'@	c #027CC8",
")@	c #0168B1",
"!@	c #004C8C",
"~@	c #00366B",
"{@	c #005090",
"]@	c #003C72",
"^@	c #003F72",
"/@	c #00A5D6",
"(@	c #00C8FB",
"_@	c #0196DB",
":@	c #0284CF",
"<@	c #0085C8",
"[@	c #005698",
"}@	c #004D7F",
"|@	c #00B9EB",
"1@	c #00CAFD",
"2@	c #019EDF",
"3@	c #0286D1",
"4@	c #009DDC",
"5@	c #0085C1",
"6@	c #00669A",
"7@	c #00477C",
"8@	c #003367",
"9@	c #00396B",
"0@	c #004B7B",
"a@	c #006B97",
"b@	c #008DBC",
"c@	c #00C0F3",
"d@	c #00C6FA",
"e@	c #01A4E3",
"f@	c #0283CF",
"g@	c #01A1E2",
"h@	c #00AFE9",
"i@	c #00A8DC",
"j@	c #009FCF",
"k@	c #009ECC",
"l@	c #00A1D0",
"m@	c #00ACDD",
"n@	c #00C4F7",
"o@	c #00CAFE",
"p@	c #0281CD",
"q@	c #018BD4",
"r@	c #01A2E2",
"s@	c #00C3F9",
"t@	c #00CBFF",
"u@	c #00B4EE",
"v@	c #0289D2",
"w@	c #0191D8",
"x@	c #01A0E1",
"y@	c #01A2E3",
"z@	c #019BDE",
"A@	c #018CD5",
"                                                      ",
"                                                      ",
"                                                      ",
"                                                      ",
"                                                      ",
"                                                      ",
"                                                      ",
"                                                      ",
"                                                      ",
"                                                      ",
"                                                      ",
"                                                      ",
"                                                      ",
". . . . . . + @ # $ % % % % & * = - ; . . . . . . . . ",
". . . . > - , ' ) ) ! ~ ~ ~ ~ { ) ] ^ / . . . . . . . ",
". . . > ( _ ) : < [ } | | | | 1 2 3 4 5 6 . . . . . . ",
". . ; 7 ' 8 ~ 9 0 0 a a a a a a 0 0 b c ! d > . . . . ",
". > ( e 8 f g 0 h i j j k l a a a a m a n o p q . . . ",
". r % ) ~ s 0 t u j t v w x y z A 0 a a B C D E . . . ",
"> F ) G n 0 t j H I J K L M N O P Q A R a S T U V . . ",
"W 5 ) X Y Z j j `  ...+.@.#.$.%.&.*.=.-.;.m } >.,.'.. ",
").) !.~.{.].j ^./.(._.:.<.[.}.|.1.2.3.0 ;.a 4.5.6.7.. ",
"8.) 9.0.a.j b.c.d.e.f.[.[.[.[.g.h.i.j.k.0 a 0 l.m.n.o.",
"p.q.r.s.t.u.v.w.x.y.<.[.[.[.[.z.A.B.C.D.E.a 0 F.G.H.I.",
") { J.K.L.M.N.O.P.[.[.[.[.[.[.[.<.y.Q.R.0 ;.{.S.T.U.V.",
") ! C K.W.X.Y.Z.`.[.[.[.[.[.[.[.[. +.+++0 a 0 S.@+U.#+",
"_ ! C s.$+%+&+*+=+-+;+>+>+>+>+>+>+,+'+)+0 a {.1 @+U.!+",
"~+{ J.s.0 a {+]+^+/+(+_+>+>+>+:+<+[+}+|+m a 0 K.1+U.!+",
"2+3+4+s.0 5+6+7+8+9+0+a+b+b+c+d+e+f+g+0 a a a s.h+U.#+",
"i+j+k+s.l+a a 0 m+n+o+p+<.[.y.q+r+s+t+{.;.0 u+s.v+U.w+",
"> x+y+K.z+E.;.a 0 A+B+C+ +D+E+F+G+H+E.;.a a s.I+J+K+L+",
". - M+N+s.O+P+a 6+Q+R+S+T+U+V+W+E.E.;.a E.z+s.X+U.Y+Z+",
". ; `+ @l.s.s.0 a a a 0 0 E.E.{.a a a a 0..@+@@@#@$@%@",
". . &@*@=@-@s.0.a 0 a a a a a 4.a a 0 .@s.;@>@#@,@V . ",
". . . '@)@!@~@s.l.O+a a 6+6+6+a {@]@s.s.^@/@(@K+_@. . ",
". . . . :@<@[@~@s.s.s..@.@.@.@.@s.s.s.}@|@#@1@2@. . . ",
". . . . . 3@4@5@6@7@z+8@s.s.s.9@0@a@b@c@U.d@e@q . . . ",
". . . . . . f@g@h@i@j@k@k@k@k@l@m@n@U.o@n.L+f@. . . . ",
". . . . . . . p@q@r@s@U.U.U.U.U.U.t@u@I.v@. . . . . . ",
". . . . . . . . . . . w@x@y@y@y@z@A@. . . . . . . . . "};
