/* XPM */
static char * hide_pressed_xpm[] = {
"27 40 277 2",
"  	c None",
". 	c #0280CD",
"+ 	c #027DC9",
"@ 	c #016EB9",
"# 	c #0163AD",
"$ 	c #005CA5",
"% 	c #0058A1",
"& 	c #0059A2",
"* 	c #0060AA",
"= 	c #016AB4",
"- 	c #0174BF",
"; 	c #027ECB",
"> 	c #027FCC",
", 	c #005FA8",
"' 	c #00539C",
") 	c #005198",
"! 	c #005199",
"~ 	c #00529B",
"{ 	c #0056A0",
"] 	c #0062AB",
"^ 	c #0177C2",
"/ 	c #016DB8",
"( 	c #00549E",
"_ 	c #00529A",
": 	c #00559E",
"< 	c #0173BF",
"[ 	c #016BB6",
"} 	c #004E92",
"| 	c #00498A",
"1 	c #004685",
"2 	c #004585",
"3 	c #0173BE",
"4 	c #00549D",
"5 	c #004687",
"6 	c #00386E",
"7 	c #003467",
"8 	c #003569",
"9 	c #003F7B",
"0 	c #004E93",
"a 	c #005597",
"b 	c #017FC7",
"c 	c #0282CE",
"d 	c #0177C3",
"e 	c #00539B",
"f 	c #005096",
"g 	c #003C74",
"h 	c #003568",
"i 	c #00386F",
"j 	c #005299",
"k 	c #006DAC",
"l 	c #0184CE",
"m 	c #0166B1",
"n 	c #005097",
"o 	c #708BA3",
"p 	c #B8CDDB",
"q 	c #C3DAE6",
"r 	c #CCE0EA",
"s 	c #D1E2EC",
"t 	c #C9D8E1",
"u 	c #B8C1CC",
"v 	c #00417D",
"w 	c #0098D3",
"x 	c #028ED5",
"y 	c #017CC8",
"z 	c #00569F",
"A 	c #004280",
"B 	c #B1C2D0",
"C 	c #EDF6F8",
"D 	c #EDF6F9",
"E 	c #F2F9FB",
"F 	c #F4FBFC",
"G 	c #EBF5F9",
"H 	c #D8ECF3",
"I 	c #F0F6F8",
"J 	c #ECEFF2",
"K 	c #00427F",
"L 	c #00569C",
"M 	c #00B9F1",
"N 	c #0288D2",
"O 	c #016FBB",
"P 	c #004B90",
"Q 	c #00376C",
"R 	c #C1CCD7",
"S 	c #C4D9E5",
"T 	c #F1F4F7",
"U 	c #F9FBFC",
"V 	c #FCFEFE",
"W 	c #FDFEFE",
"X 	c #FCFDFE",
"Y 	c #F3F5F8",
"Z 	c #F0F4F6",
"` 	c #E4F0F5",
" .	c #91A2B5",
"..	c #00A8E1",
"+.	c #01A7E5",
"@.	c #005FA9",
"#.	c #143C6B",
"$.	c #DFEDF3",
"%.	c #F2F8FB",
"&.	c #F7F9FB",
"*.	c #FAFBFC",
"=.	c #F3F7F9",
"-.	c #F0F8FA",
";.	c #CCDFEA",
">.	c #033768",
",.	c #004B8D",
"'.	c #005DA1",
").	c #00BCF4",
"!.	c #028BD4",
"~.	c #0057A0",
"{.	c #003B73",
"].	c #C8D4DD",
"^.	c #EFF8FA",
"/.	c #FBFDFD",
"(.	c #FCFDFD",
"_.	c #F9FCFD",
":.	c #F7FBFD",
"<.	c #F2F8FC",
"[.	c #D4DCE3",
"}.	c #00569B",
"|.	c #00C7FB",
"1.	c #0198DC",
"2.	c #00376D",
"3.	c #D5E2E9",
"4.	c #F7FBFC",
"5.	c #F3FAFC",
"6.	c #DFE6EB",
"7.	c #005498",
"8.	c #00CCFF",
"9.	c #01A5E4",
"0.	c #004D93",
"a.	c #E8EEF2",
"b.	c #FAFDFD",
"c.	c #FBFDFE",
"d.	c #F6FBFC",
"e.	c #E4EBEE",
"f.	c #004B8F",
"g.	c #005397",
"h.	c #01B0EC",
"i.	c #DBE2E8",
"j.	c #F9FDFD",
"k.	c #E3E8ED",
"l.	c #3C73A3",
"m.	c #01659C",
"n.	c #DCE2E9",
"o.	c #F4FAFC",
"p.	c #CDD7DE",
"q.	c #004D92",
"r.	c #00539A",
"s.	c #01B3EE",
"t.	c #005DA7",
"u.	c #8F9AAC",
"v.	c #F4F9FA",
"w.	c #B4C1D1",
"x.	c #1A6A9F",
"y.	c #05669D",
"z.	c #03659C",
"A.	c #206B9F",
"B.	c #B6C2D3",
"C.	c #E5F0F6",
"D.	c #91A1B3",
"E.	c #00366B",
"F.	c #00569A",
"G.	c #0169B5",
"H.	c #005098",
"I.	c #00417C",
"J.	c #CDD4DC",
"K.	c #D5DCE5",
"L.	c #CBD3DE",
"M.	c #BEC8D6",
"N.	c #B9C5D4",
"O.	c #B2BFD0",
"P.	c #C2CCD9",
"Q.	c #CBD4DF",
"R.	c #C7D4E0",
"S.	c #ACC3D1",
"T.	c #004888",
"U.	c #005A9E",
"V.	c #017AC6",
"W.	c #00539D",
"X.	c #004C90",
"Y.	c #0E3A6B",
"Z.	c #E1E7EC",
"`.	c #EDF4F7",
" +	c #F2F7F9",
".+	c #F2F8FA",
"++	c #DDE9F1",
"@+	c #B3C5D3",
"#+	c #00386D",
"$+	c #009ACD",
"%+	c #01A6E5",
"&+	c #0062AC",
"*+	c #003D77",
"=+	c #04386B",
"-+	c #B7BEC9",
";+	c #E9EEF1",
">+	c #F8FCFD",
",+	c #F4FAFB",
"'+	c #DEE9EE",
")+	c #90A4B7",
"!+	c #013568",
"~+	c #00407C",
"{+	c #005094",
"]+	c #00C3F6",
"^+	c #00C9FD",
"/+	c #019BDD",
"(+	c #004889",
"_+	c #00396F",
":+	c #596D89",
"<+	c #7A8699",
"[+	c #788599",
"}+	c #708197",
"|+	c #496385",
"1+	c #003D76",
"2+	c #0093C4",
"3+	c #00C0F7",
"4+	c #028FD6",
"5+	c #0066B0",
"6+	c #004F96",
"7+	c #00417E",
"8+	c #005599",
"9+	c #00BFF1",
"0+	c #00CBFE",
"a+	c #00AFEA",
"b+	c #0281CE",
"c+	c #027AC7",
"d+	c #0061AB",
"e+	c #004482",
"f+	c #003A73",
"g+	c #003C75",
"h+	c #004686",
"i+	c #004C8F",
"j+	c #00A8D8",
"k+	c #00C1F7",
"l+	c #027CC8",
"m+	c #0168B1",
"n+	c #005197",
"o+	c #00A5D6",
"p+	c #00C8FB",
"q+	c #0196DB",
"r+	c #0284CF",
"s+	c #0085C8",
"t+	c #00559A",
"u+	c #00B9EB",
"v+	c #00CAFD",
"w+	c #019EDF",
"x+	c #0286D1",
"y+	c #009DDC",
"z+	c #0085C1",
"A+	c #00669A",
"B+	c #005B9B",
"C+	c #008DBC",
"D+	c #00C0F3",
"E+	c #00C6FA",
"F+	c #01A4E3",
"G+	c #0283CF",
"H+	c #01A1E2",
"I+	c #00AFE9",
"J+	c #00A8DC",
"K+	c #009FCF",
"L+	c #009ECC",
"M+	c #00A1D0",
"N+	c #00ACDD",
"O+	c #00C4F7",
"P+	c #00CAFE",
"Q+	c #0281CD",
"R+	c #018BD4",
"S+	c #01A2E2",
"T+	c #00C3F9",
"U+	c #00CBFF",
"V+	c #00B4EE",
"W+	c #0289D2",
"X+	c #0191D8",
"Y+	c #01A0E1",
"Z+	c #01A2E3",
"`+	c #019BDE",
" @	c #018CD5",
"                                                      ",
"                                                      ",
"                                                      ",
"                                                      ",
"                                                      ",
"                                                      ",
"                                                      ",
"                                                      ",
"                                                      ",
"                                                      ",
"                                                      ",
"                                                      ",
"                                                      ",
". . . . . . + @ # $ % % % % & * = - ; . . . . . . . . ",
". . . . > - , ' ' ' ' ' ' ' ) ! ~ { ] ^ . . . . . . . ",
". . . > / ( ' ' ' ' ' ' ' ' ' ' ' ' _ : < . . . . . . ",
". . ; [ ' ' ' ' ' ' ! } | 1 2 } ' ' ' ' ! 3 > . . . . ",
". > / 4 ' ' ~ ' ~ 5 6 7 7 7 7 8 9 0 ' ' ' a b c . . . ",
". d % ~ ' ' e f g 7 7 7 7 7 7 7 7 h i ! j _ k l . . . ",
"> m ' ' ' ' n 6 7 7 o p q r s t u 7 7 v ) ' ! w x . . ",
"y z ' ' ' e A 7 7 B C D E F G H I J 7 7 K ' ' L M N . ",
"O ~ ' ' e P Q 7 R S T U V W X Y Z `  .7 7 ) ' ' ..+.. ",
"@.' ' ' ~ v 7 #.$.%.&.W W W W *.=.-.;.>.7 ,.! ' '.).!.",
"~.' ' ' n {.7 ].^./.V W W W W (._.:.<.[.7 v } ' }.|.1.",
"~ ' ' ' 0 2.7 3.4.W W W W W W W V /.5.6.7 7 ) ' 7.8.9.",
"~ ' ' ' 0.7 7 a.b.W W W W W W W W c.d.e.7 7 f.~ g.8.h.",
"( ' ' ' f 7 7 i.j.k.l.m.m.m.m.m.m.n.o.p.7 7 q.' r.8.s.",
"t.e ' ' ) 7 7 u.v.w.x.y.m.m.m.z.A.B.C.D.7 E.) ' F.8.s.",
"G.! ' ' H.I.7 7 J.K.L.M.N.N.O.P.Q.R.S.7 7 T.e ' U.8.h.",
"V.W.' ' ' X.Q 7 Y.Z.`. +V W /..+++@+7 7 #+) ' _ $+8.%+",
"> &+' ' ' f *+7 7 =+-+;+c.>+,+'+)+!+7 7 ~+' ' {+]+^+/+",
". - ' ' ' ' (+_+7 7 7 :+<+[+}+|+7 7 7 1+) _ _ 2+8.3+4+",
". ; 5+! ' ' ' 6+7+7 7 7 7 7 7 7 7 7 1 6+' ' 8+9+0+a+b+",
". . c+d+! ' ' ' ~ 0 e+f+E.E.E.g+h+i+q.' ' e j+0+k+x . ",
". . . l+m+n+' ' ' ' ' ~ ! n ) _ ' ' ' ' n o+p+^+q+. . ",
". . . . r+s+t+e ' ' ' ' ' ' ' ' ' ' ' j u+0+v+w+. . . ",
". . . . . x+y+z+A+{+e ~ j _ ~ _ _ B+C+D+8.E+F+c . . . ",
". . . . . . G+H+I+J+K+L+L+L+L+M+N+O+8.P+)./+G+. . . . ",
". . . . . . . Q+R+S+T+8.8.8.8.8.8.U+V+1.W+. . . . . . ",
". . . . . . . . . . . X+Y+Z+Z+Z+`+ @. . . . . . . . . "};
