/* XPM */
static char * maximize_pressed_xpm[] = {
"27 40 278 2",
"  	c None",
". 	c #0280CD",
"+ 	c #027DC9",
"@ 	c #016EB9",
"# 	c #0163AD",
"$ 	c #005CA5",
"% 	c #0058A1",
"& 	c #0059A2",
"* 	c #0060AA",
"= 	c #016AB4",
"- 	c #0174BF",
"; 	c #027ECB",
"> 	c #027FCC",
", 	c #005FA8",
"' 	c #00539C",
") 	c #005198",
"! 	c #005199",
"~ 	c #00529B",
"{ 	c #0056A0",
"] 	c #0062AB",
"^ 	c #0177C2",
"/ 	c #016DB8",
"( 	c #00549E",
"_ 	c #00529A",
": 	c #00559E",
"< 	c #0173BF",
"[ 	c #016BB6",
"} 	c #004E92",
"| 	c #00498A",
"1 	c #004685",
"2 	c #004585",
"3 	c #0173BE",
"4 	c #00549D",
"5 	c #004687",
"6 	c #00386E",
"7 	c #003467",
"8 	c #003569",
"9 	c #003F7B",
"0 	c #004E93",
"a 	c #005597",
"b 	c #017FC7",
"c 	c #0282CE",
"d 	c #0177C3",
"e 	c #00539B",
"f 	c #005096",
"g 	c #003C74",
"h 	c #003568",
"i 	c #00386F",
"j 	c #005299",
"k 	c #006DAC",
"l 	c #0184CE",
"m 	c #0166B1",
"n 	c #005097",
"o 	c #0F396A",
"p 	c #B8CDDB",
"q 	c #C3DAE6",
"r 	c #CCE0EA",
"s 	c #D1E2EC",
"t 	c #C9D8E1",
"u 	c #B8C1CC",
"v 	c #00417D",
"w 	c #0098D3",
"x 	c #028ED5",
"y 	c #017CC8",
"z 	c #00569F",
"A 	c #004280",
"B 	c #B1C2D0",
"C 	c #EDF6F8",
"D 	c #EDF6F9",
"E 	c #F2F9FB",
"F 	c #F4FBFC",
"G 	c #EBF5F9",
"H 	c #D8ECF3",
"I 	c #F0F6F8",
"J 	c #ECEFF2",
"K 	c #00427F",
"L 	c #00569C",
"M 	c #00B9F1",
"N 	c #0288D2",
"O 	c #016FBB",
"P 	c #004B90",
"Q 	c #00376C",
"R 	c #003567",
"S 	c #C1CCD7",
"T 	c #507FA9",
"U 	c #00659C",
"V 	c #7595B6",
"W 	c #A0B2C3",
"X 	c #00A8E1",
"Y 	c #01A7E5",
"Z 	c #005FA9",
"` 	c #073768",
" .	c #DFEDF3",
"..	c #246CA0",
"+.	c #648BAF",
"@.	c #6993B6",
"#.	c #658FB3",
"$.	c #206C9F",
"%.	c #CCDFEA",
"&.	c #023668",
"*.	c #004B8D",
"=.	c #005DA1",
"-.	c #00BCF4",
";.	c #028BD4",
">.	c #0057A0",
",.	c #003B73",
"'.	c #C8D4DD",
").	c #EFF8FA",
"!.	c #6590B4",
"~.	c #E4EAEF",
"{.	c #FDFEFE",
"].	c #F5F8FA",
"^.	c #E4E9EF",
"/.	c #5C88AE",
"(.	c #F2F8FC",
"_.	c #D4DCE3",
":.	c #00569B",
"<.	c #00C7FB",
"[.	c #0198DC",
"}.	c #00376D",
"|.	c #D5E2E9",
"1.	c #F7FBFC",
"2.	c #6C92B5",
"3.	c #F4F6F9",
"4.	c #DCE3EA",
"5.	c #5F88AF",
"6.	c #F3FAFC",
"7.	c #DFE6EB",
"8.	c #005498",
"9.	c #00CCFF",
"0.	c #01A5E4",
"a.	c #004D93",
"b.	c #E8EEF2",
"c.	c #FAFDFD",
"d.	c #658CB1",
"e.	c #E5EAEF",
"f.	c #F6FBFC",
"g.	c #E4EBEE",
"h.	c #004B8F",
"i.	c #005397",
"j.	c #01B0EC",
"k.	c #DBE2E8",
"l.	c #F9FDFD",
"m.	c #266B9F",
"n.	c #EFF3F5",
"o.	c #F1F4F7",
"p.	c #F6F8FA",
"q.	c #5081AB",
"r.	c #F4FAFC",
"s.	c #CDD7DE",
"t.	c #004D92",
"u.	c #00539A",
"v.	c #01B3EE",
"w.	c #005DA7",
"x.	c #9AA5B5",
"y.	c #F4F9FA",
"z.	c #3979A7",
"A.	c #6890B4",
"B.	c #5587AF",
"C.	c #0C669D",
"D.	c #E5F0F6",
"E.	c #91A1B3",
"F.	c #00366B",
"G.	c #00569A",
"H.	c #0169B5",
"I.	c #005098",
"J.	c #00417C",
"K.	c #CDD4DC",
"L.	c #89A0BC",
"M.	c #15679D",
"N.	c #0D669D",
"O.	c #7A97B7",
"P.	c #ACC3D1",
"Q.	c #013669",
"R.	c #004888",
"S.	c #005A9E",
"T.	c #017AC6",
"U.	c #00539D",
"V.	c #004C90",
"W.	c #123D6D",
"X.	c #E1E7EC",
"Y.	c #EDF4F7",
"Z.	c #F2F7F9",
"`.	c #FCFEFE",
" +	c #FBFDFD",
".+	c #F2F8FA",
"++	c #DDE9F1",
"@+	c #B3C5D3",
"#+	c #00386D",
"$+	c #009ACD",
"%+	c #01A6E5",
"&+	c #0062AC",
"*+	c #003D77",
"=+	c #04386B",
"-+	c #B7BEC9",
";+	c #E9EEF1",
">+	c #FBFDFE",
",+	c #F8FCFD",
"'+	c #F4FAFB",
")+	c #DEE9EE",
"!+	c #90A4B7",
"~+	c #013568",
"{+	c #00407C",
"]+	c #005094",
"^+	c #00C3F6",
"/+	c #00C9FD",
"(+	c #019BDD",
"_+	c #004889",
":+	c #00396F",
"<+	c #163B6A",
"[+	c #354B72",
"}+	c #334B73",
"|+	c #2B4670",
"1+	c #123B6C",
"2+	c #003D76",
"3+	c #0093C4",
"4+	c #00C0F7",
"5+	c #028FD6",
"6+	c #0066B0",
"7+	c #004F96",
"8+	c #00417E",
"9+	c #005599",
"0+	c #00BFF1",
"a+	c #00CBFE",
"b+	c #00AFEA",
"c+	c #0281CE",
"d+	c #027AC7",
"e+	c #0061AB",
"f+	c #004482",
"g+	c #003A73",
"h+	c #003A72",
"i+	c #004686",
"j+	c #004C8F",
"k+	c #00A8D8",
"l+	c #00C1F7",
"m+	c #027CC8",
"n+	c #0168B1",
"o+	c #005197",
"p+	c #00A5D6",
"q+	c #00C8FB",
"r+	c #0196DB",
"s+	c #0284CF",
"t+	c #0085C8",
"u+	c #00559A",
"v+	c #00B9EB",
"w+	c #00CAFD",
"x+	c #019EDF",
"y+	c #0286D1",
"z+	c #009DDC",
"A+	c #0085C1",
"B+	c #00669A",
"C+	c #005B9B",
"D+	c #008DBC",
"E+	c #00C0F3",
"F+	c #00C6FA",
"G+	c #01A4E3",
"H+	c #0283CF",
"I+	c #01A1E2",
"J+	c #00AFE9",
"K+	c #00A8DC",
"L+	c #009FCF",
"M+	c #009ECC",
"N+	c #00A1D0",
"O+	c #00ACDD",
"P+	c #00C4F7",
"Q+	c #00CAFE",
"R+	c #0281CD",
"S+	c #018BD4",
"T+	c #01A2E2",
"U+	c #00C3F9",
"V+	c #00CBFF",
"W+	c #00B4EE",
"X+	c #0289D2",
"Y+	c #0191D8",
"Z+	c #01A0E1",
"`+	c #01A2E3",
" @	c #019BDE",
".@	c #018CD5",
"                                                      ",
"                                                      ",
"                                                      ",
"                                                      ",
"                                                      ",
"                                                      ",
"                                                      ",
"                                                      ",
"                                                      ",
"                                                      ",
"                                                      ",
"                                                      ",
"                                                      ",
". . . . . . + @ # $ % % % % & * = - ; . . . . . . . . ",
". . . . > - , ' ' ' ' ' ' ' ) ! ~ { ] ^ . . . . . . . ",
". . . > / ( ' ' ' ' ' ' ' ' ' ' ' ' _ : < . . . . . . ",
". . ; [ ' ' ' ' ' ' ! } | 1 2 } ' ' ' ' ! 3 > . . . . ",
". > / 4 ' ' ~ ' ~ 5 6 7 7 7 7 8 9 0 ' ' ' a b c . . . ",
". d % ~ ' ' e f g 7 7 7 7 7 7 7 7 h i ! j _ k l . . . ",
"> m ' ' ' ' n 6 7 7 o p q r s t u h 7 v ) ' ! w x . . ",
"y z ' ' ' e A 7 h B C D E F G H I J 7 7 K ' ' L M N . ",
"O ~ ' ' e P Q R S T U U U U U U U V W 7 7 ) ' ' X Y . ",
"Z ' ' ' ~ v 7 `  .U ..+.@.@.#.#.$.U %.&.7 *.! ' =.-.;.",
">.' ' ' n ,.R '.).U !.~.{.{.].^./.U (._.7 v } ' :.<.[.",
"~ ' ' ' 0 }.7 |.1.U 2.3.{.{.{.4.5.U 6.7.7 7 ) ' 8.9.0.",
"~ ' ' ' a.7 7 b.c.U d.].{.{.{.e.#.U f.g.7 7 h.~ i.9.j.",
"( ' ' ' f 7 7 k.l.m.#.n.o.3.p.e.q.U r.s.7 7 t.' u.9.v.",
"w.e ' ' ) 7 7 x.y.U U z.!.2.A.B.U C.D.E.7 F.) ' G.9.v.",
"H.! ' ' I.J.7 7 K.L.M.U U U U N.m.O.P.Q.7 R.e ' S.9.j.",
"T.U.' ' ' V.Q 7 W.X.Y.Z.`.{. +.+++@+h 7 #+) ' _ $+9.%+",
"> &+' ' ' f *+7 7 =+-+;+>+,+'+)+!+~+7 7 {+' ' ]+^+/+(+",
". - ' ' ' ' _+:+7 7 7 <+[+}+|+1+7 7 7 2+) _ _ 3+9.4+5+",
". ; 6+! ' ' ' 7+8+7 7 7 7 7 7 7 7 7 1 7+' ' 9+0+a+b+c+",
". . d+e+! ' ' ' ~ 0 f+g+F.F.F.h+i+j+t.' ' e k+a+l+x . ",
". . . m+n+o+' ' ' ' ' ~ ! n ) _ ' ' ' ' n p+q+/+r+. . ",
". . . . s+t+u+e ' ' ' ' ' ' ' ' ' ' ' j v+a+w+x+. . . ",
". . . . . y+z+A+B+]+e ~ j _ ~ _ _ C+D+E+9.F+G+c . . . ",
". . . . . . H+I+J+K+L+M+M+M+M+N+O+P+9.Q+-.(+H+. . . . ",
". . . . . . . R+S+T+U+9.9.9.9.9.9.V+W+[.X+. . . . . . ",
". . . . . . . . . . . Y+Z+`+`+`+ @.@. . . . . . . . . "};
