/* XPM */
static char * maximize_active_xpm[] = {
"27 40 388 2",
"  	c None",
". 	c #0280CD",
"+ 	c #027DC9",
"@ 	c #016EB9",
"# 	c #0163AD",
"$ 	c #005CA5",
"% 	c #0058A1",
"& 	c #0059A2",
"* 	c #0060AA",
"= 	c #016AB4",
"- 	c #0174BF",
"; 	c #027ECB",
"> 	c #027FCC",
", 	c #005FA8",
"' 	c #00539C",
") 	c #00529B",
"! 	c #004D93",
"~ 	c #004C90",
"{ 	c #004E94",
"] 	c #0056A0",
"^ 	c #0062AB",
"/ 	c #0177C2",
"( 	c #016DB8",
"_ 	c #00549E",
": 	c #00519A",
"< 	c #004A8D",
"[ 	c #003D75",
"} 	c #003A6F",
"| 	c #003C71",
"1 	c #003B70",
"2 	c #00396E",
"3 	c #00407D",
"4 	c #004D92",
"5 	c #00569F",
"6 	c #0173BF",
"7 	c #016BB6",
"8 	c #00529A",
"9 	c #00407C",
"0 	c #004881",
"a 	c #0167AB",
"b 	c #0177C0",
"c 	c #0287D1",
"d 	c #0286D1",
"e 	c #027CC7",
"f 	c #016FB5",
"g 	c #015B9A",
"h 	c #00467F",
"i 	c #00427F",
"j 	c #0173BE",
"k 	c #00549D",
"l 	c #00498B",
"m 	c #00386E",
"n 	c #015998",
"o 	c #017CC3",
"p 	c #019ADD",
"q 	c #01B6EF",
"r 	c #00AEE7",
"s 	c #009CD6",
"t 	c #0091CF",
"u 	c #0186C8",
"v 	c #0187CE",
"w 	c #0283CF",
"x 	c #0174BC",
"y 	c #005694",
"z 	c #003A71",
"A 	c #005597",
"B 	c #017FC7",
"C 	c #0282CE",
"D 	c #0177C3",
"E 	c #00366C",
"F 	c #0188D1",
"G 	c #00B9F2",
"H 	c #00BDF1",
"I 	c #0075A7",
"J 	c #004272",
"K 	c #003E6F",
"L 	c #003C6E",
"M 	c #003A6D",
"N 	c #003F73",
"O 	c #015E9E",
"P 	c #027FCB",
"Q 	c #004781",
"R 	c #003970",
"S 	c #006DAC",
"T 	c #0184CE",
"U 	c #0166B1",
"V 	c #004F97",
"W 	c #015592",
"X 	c #00BEF5",
"Y 	c #00B0E1",
"Z 	c #106492",
"` 	c #708BA3",
" .	c #B8CDDB",
"..	c #C3DAE6",
"+.	c #CCE0EA",
"@.	c #D1E2EC",
"#.	c #C9D8E1",
"$.	c #B8C1CC",
"%.	c #024A83",
"&.	c #0176BF",
"*.	c #017DC8",
"=.	c #00437B",
"-.	c #003F7A",
";.	c #0098D3",
">.	c #028ED5",
",.	c #017CC8",
"'.	c #003F75",
").	c #0179BD",
"!.	c #00B7F1",
"~.	c #00B8EA",
"{.	c #0F6C99",
"].	c #B1C2D0",
"^.	c #EDF6F8",
"/.	c #EDF6F9",
"(.	c #F2F9FB",
"_.	c #F4FBFC",
":.	c #EBF5F9",
"<.	c #D8ECF3",
"[.	c #F0F6F8",
"}.	c #ECEFF2",
"|.	c #1B548C",
"1.	c #0278C2",
"2.	c #016CB2",
"3.	c #005E9B",
"4.	c #00B9F1",
"5.	c #0288D2",
"6.	c #016FBB",
"7.	c #004C91",
"8.	c #00356A",
"9.	c #00528E",
"0.	c #01A1E0",
"a.	c #00C2F6",
"b.	c #04608F",
"c.	c #C1CCD7",
"d.	c #507FA9",
"e.	c #00659C",
"f.	c #7595B6",
"g.	c #A0B2C3",
"h.	c #015796",
"i.	c #027AC5",
"j.	c #004E8A",
"k.	c #00386F",
"l.	c #00A8E1",
"m.	c #01A7E5",
"n.	c #005FA9",
"o.	c #004484",
"p.	c #003467",
"q.	c #016FAF",
"r.	c #00B8F1",
"s.	c #008EC0",
"t.	c #3B5B7F",
"u.	c #DFEDF3",
"v.	c #246CA0",
"w.	c #3074A3",
"x.	c #4883AD",
"y.	c #417EAA",
"z.	c #206C9F",
"A.	c #CCDFEA",
"B.	c #23547F",
"C.	c #0175BD",
"D.	c #0163A5",
"E.	c #003468",
"F.	c #007BB5",
"G.	c #00BCF4",
"H.	c #028BD4",
"I.	c #0057A0",
"J.	c #005198",
"K.	c #003E79",
"L.	c #003366",
"M.	c #0188CC",
"N.	c #00BBF1",
"O.	c #006795",
"P.	c #C8D4DD",
"Q.	c #EFF8FA",
"R.	c #427FAB",
"S.	c #BBCAD9",
"T.	c #FDFEFE",
"U.	c #EDF1F5",
"V.	c #B7C5D5",
"W.	c #3C7AA7",
"X.	c #F2F8FC",
"Y.	c #D4DCE3",
"Z.	c #015897",
"`.	c #016AAF",
" +	c #003A6E",
".+	c #006497",
"++	c #00C7FB",
"@+	c #0198DC",
"#+	c #003B73",
"$+	c #0294D9",
"%+	c #00ACE3",
"&+	c #004E80",
"*+	c #D5E2E9",
"=+	c #F7FBFC",
"-+	c #AEBFD1",
";+	c #3275A5",
">+	c #F3FAFC",
",+	c #DFE6EB",
"'+	c #034981",
")+	c #016EB5",
"!+	c #003C72",
"~+	c #005684",
"{+	c #00CCFF",
"]+	c #01A5E4",
"^+	c #0293D8",
"/+	c #01A1DA",
"(+	c #00437A",
"_+	c #E8EEF2",
":+	c #FAFDFD",
"<+	c #D1DBE5",
"[+	c #C4CFDB",
"}+	c #F6FBFC",
"|+	c #E4EBEE",
"1+	c #044880",
"2+	c #005582",
"3+	c #01B0EC",
"4+	c #0282CB",
"5+	c #0189CF",
"6+	c #004880",
"7+	c #DBE2E8",
"8+	c #F9FDFD",
"9+	c #CCD6E1",
"0+	c #EBF0F4",
"a+	c #BCCBD9",
"b+	c #F4FAFC",
"c+	c #CDD7DE",
"d+	c #01528F",
"e+	c #01B3EE",
"f+	c #005DA7",
"g+	c #016CB1",
"h+	c #005695",
"i+	c #9AA5B5",
"j+	c #F4F9FA",
"k+	c #3979A7",
"l+	c #0C669D",
"m+	c #E5F0F6",
"n+	c #91A1B3",
"o+	c #0165A7",
"p+	c #003569",
"q+	c #00608E",
"r+	c #0169B5",
"s+	c #005098",
"t+	c #003D78",
"u+	c #015997",
"v+	c #0179C3",
"w+	c #1F4473",
"x+	c #CDD4DC",
"y+	c #89A0BC",
"z+	c #15679D",
"A+	c #0D669D",
"B+	c #266B9F",
"C+	c #7A97B7",
"D+	c #ACC3D1",
"E+	c #0C4F88",
"F+	c #027DC8",
"G+	c #027CC8",
"H+	c #015694",
"I+	c #0072A3",
"J+	c #017AC6",
"K+	c #00539D",
"L+	c #004280",
"M+	c #00467E",
"N+	c #0178C3",
"O+	c #0169AE",
"P+	c #325883",
"Q+	c #E1E7EC",
"R+	c #EDF4F7",
"S+	c #F2F7F9",
"T+	c #FCFEFE",
"U+	c #FBFDFD",
"V+	c #F2F8FA",
"W+	c #DDE9F1",
"X+	c #B3C5D3",
"Y+	c #05457B",
"Z+	c #0171B8",
"`+	c #004077",
" @	c #009ACD",
".@	c #01A6E5",
"+@	c #0062AC",
"@@	c #00366A",
"#@	c #0160A1",
"$@	c #027ECA",
"%@	c #184F82",
"&@	c #B7BEC9",
"*@	c #E9EEF1",
"=@	c #FBFDFE",
"-@	c #F8FCFD",
";@	c #F4FAFB",
">@	c #DEE9EE",
",@	c #90A4B7",
"'@	c #1B4A7F",
")@	c #016FB6",
"!@	c #004577",
"~@	c #00C3F6",
"{@	c #00C9FD",
"]@	c #019BDD",
"^@	c #00559E",
"/@	c #003B74",
"(@	c #003D73",
"_@	c #016DB4",
":@	c #0171B9",
"<@	c #03457D",
"[@	c #596D89",
"}@	c #7A8699",
"|@	c #788599",
"1@	c #708197",
"2@	c #496385",
"3@	c #0A538E",
"4@	c #0278C1",
"5@	c #0160A2",
"6@	c #0093C4",
"7@	c #00C0F7",
"8@	c #028FD6",
"9@	c #0066B0",
"0@	c #004F95",
"a@	c #0164A7",
"b@	c #016DB3",
"c@	c #015C9D",
"d@	c #015E9F",
"e@	c #0170B7",
"f@	c #027BC6",
"g@	c #005998",
"h@	c #003568",
"i@	c #005D8D",
"j@	c #00BFF1",
"k@	c #00CBFE",
"l@	c #00AFEA",
"m@	c #0281CE",
"n@	c #027AC7",
"o@	c #0061AB",
"p@	c #004787",
"q@	c #005592",
"r@	c #004F8A",
"s@	c #004D7D",
"t@	c #00A8D8",
"u@	c #00C1F7",
"v@	c #0168B1",
"w@	c #004C8C",
"x@	c #00366B",
"y@	c #003F76",
"z@	c #00518D",
"A@	c #015C9B",
"B@	c #015F9F",
"C@	c #004E88",
"D@	c #003F72",
"E@	c #00A5D6",
"F@	c #00C8FB",
"G@	c #0196DB",
"H@	c #0284CF",
"I@	c #0085C8",
"J@	c #005698",
"K@	c #004D7F",
"L@	c #00B9EB",
"M@	c #00CAFD",
"N@	c #019EDF",
"O@	c #009DDC",
"P@	c #0085C1",
"Q@	c #00669A",
"R@	c #00477C",
"S@	c #003367",
"T@	c #00396B",
"U@	c #004B7B",
"V@	c #006B97",
"W@	c #008DBC",
"X@	c #00C0F3",
"Y@	c #00C6FA",
"Z@	c #01A4E3",
"`@	c #01A1E2",
" #	c #00AFE9",
".#	c #00A8DC",
"+#	c #009FCF",
"@#	c #009ECC",
"##	c #00A1D0",
"$#	c #00ACDD",
"%#	c #00C4F7",
"&#	c #00CAFE",
"*#	c #0281CD",
"=#	c #018BD4",
"-#	c #01A2E2",
";#	c #00C3F9",
">#	c #00CBFF",
",#	c #00B4EE",
"'#	c #0289D2",
")#	c #0191D8",
"!#	c #01A0E1",
"~#	c #01A2E3",
"{#	c #019BDE",
"]#	c #018CD5",
"                                                      ",
"                                                      ",
"                                                      ",
"                                                      ",
"                                                      ",
"                                                      ",
"                                                      ",
"                                                      ",
"                                                      ",
"                                                      ",
"                                                      ",
"                                                      ",
"                                                      ",
". . . . . . + @ # $ % % % % & * = - ; . . . . . . . . ",
". . . . > - , ' ) ) ! ~ ~ ~ ~ { ) ] ^ / . . . . . . . ",
". . . > ( _ ) : < [ } | | | | 1 2 3 4 5 6 . . . . . . ",
". . ; 7 ' 8 ~ 9 0 a b c c c d e f g h i ! j > . . . . ",
". > ( k 8 l m n o p q r s t u v w . x y z A B C . . . ",
". D % ) ~ E g F G H I J K L M N O . . P Q R S T . . . ",
"> U ) V z W v X Y Z `  ...+.@.#.$.%.&.. *.=.-.;.>.. . ",
",.5 ) 9 '.).!.~.{.].^./.(._.:.<.[.}.|.1.. 2.} 3.4.5.. ",
"6.) 7.8.9.0.a.b.c.d.e.e.e.e.e.e.e.f.g.h.; i.j.k.l.m.. ",
"n.) o.p.q.r.s.t.u.e.v.w.x.x.y.y.z.e.A.B.C.. D.E.F.G.H.",
"I.J.K.L.M.N.O.P.Q.e.R.S.T.T.U.V.W.e.X.Y.Z.. `. +.+++@+",
") { #+L.$+%+&+*+=+e.y.U.T.T.T.-+;+e.>+,+'+. )+!+~+{+]+",
") ! R L.^+/+(+_+:+e.;+<+T.T.T.[+y.e.}+|+1+. )+!+2+{+3+",
"_ ! R L.4+5+6+7+8+e.y.9+0+U.U.a+;+e.b+c+d+. 2.1 2+{+e+",
"f+{ #+L.g+C h+i+j+e.e.k+R.y.y.y.e.l+m+n+2.. o+p+q+{+e+",
"r+s+t+L.u+. v+w+x+y+z+e.e.e.e.A+B+C+D+E+F+G+H+L.I+{+3+",
"J+K+L+L.M+N+. O+P+Q+R+S+T+T.U+V+W+X+Y+Z+. C.`+L. @{+.@",
"> +@< p+@@#@$@P O+%@&@*@=@-@;@>@,@'@)@> . y L.!@~@{@]@",
". - ^@/@L.(@_@. P :@<@[@}@|@1@2@3@4@. . 5@@@L.6@{+7@8@",
". ; 9@0@E.L.L.a@$@. . b@c@c@d@e@P . f@g@h@p.i@j@k@l@m@",
". . n@o@p@8.L.h@q@Z+G+. . . . ; i.)@r@p.L.s@t@k@u@>.. ",
". . . G+v@w@x@L.E.y@z@A@B@B@B@u+C@!+L.L.D@E@F@{@G@. . ",
". . . . H@I@J@x@L.L.L.p.p.p.p.p.L.L.L.K@L@k@M@N@. . . ",
". . . . . d O@P@Q@R@@@S@L.L.L.T@U@V@W@X@{+Y@Z@C . . . ",
". . . . . . w `@ #.#+#@#@#@#@###$#%#{+&#G.]@w . . . . ",
". . . . . . . *#=#-#;#{+{+{+{+{+{+>#,#@+'#. . . . . . ",
". . . . . . . . . . . )#!#~#~#~#{#]#. . . . . . . . . "};
