/* XPM */
static char * maximize_prelight_xpm[] = {
"27 40 342 2",
"  	c None",
". 	c #0280CD",
"+ 	c #027DC9",
"@ 	c #016EB9",
"# 	c #0163AD",
"$ 	c #005CA5",
"% 	c #0058A1",
"& 	c #0059A2",
"* 	c #0060AA",
"= 	c #016AB4",
"- 	c #0174BF",
"; 	c #027ECB",
"> 	c #027FCC",
", 	c #005FA8",
"' 	c #00539C",
") 	c #00529B",
"! 	c #004D93",
"~ 	c #004C90",
"{ 	c #004E94",
"] 	c #0056A0",
"^ 	c #0062AB",
"/ 	c #0177C2",
"( 	c #016DB8",
"_ 	c #00549E",
": 	c #00519A",
"< 	c #00488A",
"[ 	c #003D75",
"} 	c #003A6F",
"| 	c #003C71",
"1 	c #003B70",
"2 	c #00396E",
"3 	c #00407D",
"4 	c #004D92",
"5 	c #00569F",
"6 	c #0173BF",
"7 	c #016BB6",
"8 	c #00529A",
"9 	c #00437F",
"0 	c #004683",
"a 	c #004D8F",
"b 	c #00467F",
"c 	c #00427F",
"d 	c #0173BE",
"e 	c #00549D",
"f 	c #00498B",
"g 	c #00386E",
"h 	c #0776B0",
"i 	c #0584C2",
"j 	c #1192C3",
"k 	c #0485BF",
"l 	c #037BB8",
"m 	c #004987",
"n 	c #003A71",
"o 	c #005597",
"p 	c #017FC7",
"q 	c #0282CE",
"r 	c #0177C3",
"s 	c #00366C",
"t 	c #0771AB",
"u 	c #0F8CBF",
"v 	c #004272",
"w 	c #003E6F",
"x 	c #003C6E",
"y 	c #003A6D",
"z 	c #003F73",
"A 	c #004784",
"B 	c #004781",
"C 	c #003970",
"D 	c #006DAC",
"E 	c #0184CE",
"F 	c #0166B1",
"G 	c #004F97",
"H 	c #09A3D4",
"I 	c #106492",
"J 	c #708BA3",
"K 	c #B8CDDB",
"L 	c #C3DAE6",
"M 	c #CCE0EA",
"N 	c #D1E2EC",
"O 	c #C9D8E1",
"P 	c #B8C1CC",
"Q 	c #004783",
"R 	c #004B8C",
"S 	c #00437B",
"T 	c #003F7A",
"U 	c #0098D3",
"V 	c #028ED5",
"W 	c #017CC8",
"X 	c #00407C",
"Y 	c #004580",
"Z 	c #066FAA",
"` 	c #0F6C99",
" .	c #B1C2D0",
"..	c #EDF6F8",
"+.	c #EDF6F9",
"@.	c #F2F9FB",
"#.	c #F4FBFC",
"$.	c #EBF5F9",
"%.	c #D8ECF3",
"&.	c #F0F6F8",
"*.	c #ECEFF2",
"=.	c #0B4B86",
"-.	c #004684",
";.	c #004C8D",
">.	c #005E9B",
",.	c #00B9F1",
"'.	c #0288D2",
").	c #016FBB",
"!.	c #004C91",
"~.	c #003A70",
"{.	c #004885",
"].	c #048BC7",
"^.	c #04608F",
"/.	c #C1CCD7",
"(.	c #507FA9",
"_.	c #00659C",
":.	c #7595B6",
"<.	c #A0B2C3",
"[.	c #004E90",
"}.	c #00386F",
"|.	c #00A8E1",
"1.	c #01A7E5",
"2.	c #005FA9",
"3.	c #004484",
"4.	c #003568",
"5.	c #025B95",
"6.	c #008EC0",
"7.	c #3B5B7F",
"8.	c #DFEDF3",
"9.	c #246CA0",
"0.	c #648BAF",
"a.	c #6993B6",
"b.	c #658FB3",
"c.	c #206C9F",
"d.	c #CCDFEA",
"e.	c #1F5280",
"f.	c #003468",
"g.	c #007BB5",
"h.	c #00BCF4",
"i.	c #028BD4",
"j.	c #0057A0",
"k.	c #005198",
"l.	c #003E79",
"m.	c #003366",
"n.	c #02548F",
"o.	c #108EBF",
"p.	c #006795",
"q.	c #C8D4DD",
"r.	c #EFF8FA",
"s.	c #6590B4",
"t.	c #E4EAEF",
"u.	c #FDFEFE",
"v.	c #F5F8FA",
"w.	c #E4E9EF",
"x.	c #5C88AE",
"y.	c #F2F8FC",
"z.	c #D4DCE3",
"A.	c #004785",
"B.	c #003A6E",
"C.	c #006497",
"D.	c #00C7FB",
"E.	c #0198DC",
"F.	c #003B73",
"G.	c #003569",
"H.	c #015C98",
"I.	c #0D94C7",
"J.	c #004E80",
"K.	c #D5E2E9",
"L.	c #F7FBFC",
"M.	c #6C92B5",
"N.	c #F4F6F9",
"O.	c #DCE3EA",
"P.	c #5F88AF",
"Q.	c #F3FAFC",
"R.	c #DFE6EB",
"S.	c #003E76",
"T.	c #005684",
"U.	c #00CCFF",
"V.	c #01A5E4",
"W.	c #015792",
"X.	c #067AB4",
"Y.	c #014880",
"Z.	c #E8EEF2",
"`.	c #FAFDFD",
" +	c #658CB1",
".+	c #E5EAEF",
"++	c #F6FBFC",
"@+	c #E4EBEE",
"#+	c #005582",
"$+	c #01B0EC",
"%+	c #004887",
"&+	c #0465A0",
"*+	c #004782",
"=+	c #DBE2E8",
"-+	c #F9FDFD",
";+	c #266B9F",
">+	c #EFF3F5",
",+	c #F1F4F7",
"'+	c #F6F8FA",
")+	c #5081AB",
"!+	c #F4FAFC",
"~+	c #CDD7DE",
"{+	c #01B3EE",
"]+	c #005DA7",
"^+	c #004988",
"/+	c #9AA5B5",
"(+	c #F4F9FA",
"_+	c #3979A7",
":+	c #6890B4",
"<+	c #5587AF",
"[+	c #0C669D",
"}+	c #E5F0F6",
"|+	c #91A1B3",
"1+	c #00608E",
"2+	c #0169B5",
"3+	c #005098",
"4+	c #003D78",
"5+	c #004C8E",
"6+	c #004B8B",
"7+	c #1F4473",
"8+	c #CDD4DC",
"9+	c #89A0BC",
"0+	c #15679D",
"a+	c #0D669D",
"b+	c #7A97B7",
"c+	c #ACC3D1",
"d+	c #014683",
"e+	c #0072A3",
"f+	c #017AC6",
"g+	c #00539D",
"h+	c #004280",
"i+	c #00467E",
"j+	c #325883",
"k+	c #E1E7EC",
"l+	c #EDF4F7",
"m+	c #F2F7F9",
"n+	c #FCFEFE",
"o+	c #FBFDFD",
"p+	c #F2F8FA",
"q+	c #DDE9F1",
"r+	c #B3C5D3",
"s+	c #05457B",
"t+	c #004077",
"u+	c #009ACD",
"v+	c #01A6E5",
"w+	c #0062AC",
"x+	c #004A8D",
"y+	c #00366A",
"z+	c #184F82",
"A+	c #B7BEC9",
"B+	c #E9EEF1",
"C+	c #FBFDFE",
"D+	c #F8FCFD",
"E+	c #F4FAFB",
"F+	c #DEE9EE",
"G+	c #90A4B7",
"H+	c #174980",
"I+	c #004577",
"J+	c #00C3F6",
"K+	c #00C9FD",
"L+	c #019BDD",
"M+	c #00559E",
"N+	c #003B74",
"O+	c #003F76",
"P+	c #004D8B",
"Q+	c #004886",
"R+	c #03457D",
"S+	c #596D89",
"T+	c #7A8699",
"U+	c #6C7C95",
"V+	c #657893",
"W+	c #3A5A85",
"X+	c #0093C4",
"Y+	c #00C0F7",
"Z+	c #028FD6",
"`+	c #0066B0",
" @	c #004F95",
".@	c #003467",
"+@	c #005D8D",
"@@	c #00BFF1",
"#@	c #00CBFE",
"$@	c #00AFEA",
"%@	c #0281CE",
"&@	c #027AC7",
"*@	c #0061AB",
"=@	c #004787",
"-@	c #00356A",
";@	c #004D7D",
">@	c #00A8D8",
",@	c #00C1F7",
"'@	c #027CC8",
")@	c #0168B1",
"!@	c #004C8C",
"~@	c #00366B",
"{@	c #005090",
"]@	c #003C72",
"^@	c #003F72",
"/@	c #00A5D6",
"(@	c #00C8FB",
"_@	c #0196DB",
":@	c #0284CF",
"<@	c #0085C8",
"[@	c #005698",
"}@	c #004D7F",
"|@	c #00B9EB",
"1@	c #00CAFD",
"2@	c #019EDF",
"3@	c #0286D1",
"4@	c #009DDC",
"5@	c #0085C1",
"6@	c #00669A",
"7@	c #00477C",
"8@	c #003367",
"9@	c #00396B",
"0@	c #004B7B",
"a@	c #006B97",
"b@	c #008DBC",
"c@	c #00C0F3",
"d@	c #00C6FA",
"e@	c #01A4E3",
"f@	c #0283CF",
"g@	c #01A1E2",
"h@	c #00AFE9",
"i@	c #00A8DC",
"j@	c #009FCF",
"k@	c #009ECC",
"l@	c #00A1D0",
"m@	c #00ACDD",
"n@	c #00C4F7",
"o@	c #00CAFE",
"p@	c #0281CD",
"q@	c #018BD4",
"r@	c #01A2E2",
"s@	c #00C3F9",
"t@	c #00CBFF",
"u@	c #00B4EE",
"v@	c #0289D2",
"w@	c #0191D8",
"x@	c #01A0E1",
"y@	c #01A2E3",
"z@	c #019BDE",
"A@	c #018CD5",
"                                                      ",
"                                                      ",
"                                                      ",
"                                                      ",
"                                                      ",
"                                                      ",
"                                                      ",
"                                                      ",
"                                                      ",
"                                                      ",
"                                                      ",
"                                                      ",
"                                                      ",
". . . . . . + @ # $ % % % % & * = - ; . . . . . . . . ",
". . . . > - , ' ) ) ! ~ ~ ~ ~ { ) ] ^ / . . . . . . . ",
". . . > ( _ ) : < [ } | | | | 1 2 3 4 5 6 . . . . . . ",
". . ; 7 ' 8 ~ 9 0 0 a a a a a a 0 0 b c ! d > . . . . ",
". > ( e 8 f g 0 h i j j k l a a a a m a n o p q . . . ",
". r % ) ~ s 0 t u j t v w x y z A 0 a a B C D E . . . ",
"> F ) G n 0 t j H I J K L M N O P Q A R a S T U V . . ",
"W 5 ) X Y Z j j `  ...+.@.#.$.%.&.*.=.-.;.m } >.,.'.. ",
").) !.~.{.].j ^./.(._._._._._._._.:.<.0 ;.a [.}.|.1.. ",
"2.) 3.4.5.j 6.7.8._.9.0.a.a.b.b.c._.d.e.0 a 0 f.g.h.i.",
"j.k.l.m.n.o.p.q.r._.s.t.u.u.v.w.x._.y.z.A.a 0 B.C.D.E.",
") { F.G.H.I.J.K.L._.M.N.u.u.u.O.P._.Q.R.0 ;.{.S.T.U.V.",
") ! C G.W.X.Y.Z.`._. +v.u.u.u..+b._.++@+0 a 0 S.#+U.$+",
"_ ! C m.%+&+*+=+-+;+b.>+,+N.'+.+)+_.!+~+0 a {.1 #+U.{+",
"]+{ F.m.0 a ^+/+(+_._._+s.M.:+<+_.[+}+|+m a 0 G.1+U.{+",
"2+3+4+m.0 5+6+7+8+9+0+_._._._.a+;+b+c+d+a a a m.e+U.$+",
"f+g+h+m.i+a a 0 j+k+l+m+n+u.o+p+q+r+s+{.;.0 t+m.u+U.v+",
"> w+x+G.y+A.;.a 0 z+A+B+C+D+E+F+G+H+A.;.a a m.I+J+K+L+",
". - M+N+m.O+P+a 6+Q+R+S+T+U+V+W+A.A.;.a A.y+m.X+U.Y+Z+",
". ; `+ @f.m.m.0 a a a 0 0 A.A.{.a a a a 4..@+@@@#@$@%@",
". . &@*@=@-@m.4.a 0 a a a a a a a a 0 .@m.;@>@#@,@V . ",
". . . '@)@!@~@m.f.O+a a 6+6+6+a {@]@m.m.^@/@(@K+_@. . ",
". . . . :@<@[@~@m.m.m..@.@.@.@.@m.m.m.}@|@#@1@2@. . . ",
". . . . . 3@4@5@6@7@y+8@m.m.m.9@0@a@b@c@U.d@e@q . . . ",
". . . . . . f@g@h@i@j@k@k@k@k@l@m@n@U.o@h.L+f@. . . . ",
". . . . . . . p@q@r@s@U.U.U.U.U.U.t@u@E.v@. . . . . . ",
". . . . . . . . . . . w@x@y@y@y@z@A@. . . . . . . . . "};
