/* XPM */
static char * maximize_active_xpm[] = {
"27 40 393 2",
"  	c None",
". 	c #0280CD",
"+ 	c #027DC9",
"@ 	c #016EB9",
"# 	c #0163AD",
"$ 	c #005CA5",
"% 	c #0058A1",
"& 	c #0059A2",
"* 	c #0060AA",
"= 	c #016AB4",
"- 	c #0174BF",
"; 	c #027ECB",
"> 	c #027FCC",
", 	c #005FA8",
"' 	c #00539C",
") 	c #00529B",
"! 	c #004D93",
"~ 	c #004C90",
"{ 	c #004E94",
"] 	c #0056A0",
"^ 	c #0062AB",
"/ 	c #0177C2",
"( 	c #016DB8",
"_ 	c #00549E",
": 	c #00519A",
"< 	c #004A8D",
"[ 	c #003D75",
"} 	c #003A6F",
"| 	c #003C71",
"1 	c #003B70",
"2 	c #00396E",
"3 	c #00407D",
"4 	c #004D92",
"5 	c #00569F",
"6 	c #0173BF",
"7 	c #016BB6",
"8 	c #00529A",
"9 	c #00407C",
"0 	c #004881",
"a 	c #0167AB",
"b 	c #0177C0",
"c 	c #0287D1",
"d 	c #0286D1",
"e 	c #027CC7",
"f 	c #016FB5",
"g 	c #015B9A",
"h 	c #00467F",
"i 	c #00427F",
"j 	c #0173BE",
"k 	c #00549D",
"l 	c #00498B",
"m 	c #00386E",
"n 	c #015998",
"o 	c #017CC3",
"p 	c #019ADD",
"q 	c #01B6EF",
"r 	c #00AEE7",
"s 	c #009CD6",
"t 	c #0091CF",
"u 	c #0186C8",
"v 	c #0187CE",
"w 	c #0283CF",
"x 	c #0174BC",
"y 	c #005694",
"z 	c #003A71",
"A 	c #005597",
"B 	c #017FC7",
"C 	c #0282CE",
"D 	c #0177C3",
"E 	c #00366C",
"F 	c #0188D1",
"G 	c #00B9F2",
"H 	c #00BDF1",
"I 	c #0075A7",
"J 	c #004272",
"K 	c #003E6F",
"L 	c #003C6E",
"M 	c #003A6D",
"N 	c #003F73",
"O 	c #015E9E",
"P 	c #027FCB",
"Q 	c #004781",
"R 	c #003970",
"S 	c #006DAC",
"T 	c #0184CE",
"U 	c #0166B1",
"V 	c #004F97",
"W 	c #015592",
"X 	c #00BEF5",
"Y 	c #00B0E1",
"Z 	c #106492",
"` 	c #708BA3",
" .	c #B8CDDB",
"..	c #C3DAE6",
"+.	c #CCE0EA",
"@.	c #D1E2EC",
"#.	c #C9D8E1",
"$.	c #B8C1CC",
"%.	c #024A83",
"&.	c #0176BF",
"*.	c #017DC8",
"=.	c #00437B",
"-.	c #003F7A",
";.	c #0098D3",
">.	c #028ED5",
",.	c #017CC8",
"'.	c #003F75",
").	c #0179BD",
"!.	c #00B7F1",
"~.	c #00B8EA",
"{.	c #0F6C99",
"].	c #B1C2D0",
"^.	c #EDF6F8",
"/.	c #EDF6F9",
"(.	c #F2F9FB",
"_.	c #F4FBFC",
":.	c #EBF5F9",
"<.	c #D8ECF3",
"[.	c #F0F6F8",
"}.	c #ECEFF2",
"|.	c #1B548C",
"1.	c #0278C2",
"2.	c #016CB2",
"3.	c #005E9B",
"4.	c #00B9F1",
"5.	c #0288D2",
"6.	c #016FBB",
"7.	c #004C91",
"8.	c #00356A",
"9.	c #00528E",
"0.	c #01A1E0",
"a.	c #00C2F6",
"b.	c #04608F",
"c.	c #C1CCD7",
"d.	c #507FA9",
"e.	c #00659C",
"f.	c #7595B6",
"g.	c #A0B2C3",
"h.	c #015796",
"i.	c #027AC5",
"j.	c #004E8A",
"k.	c #00386F",
"l.	c #00A8E1",
"m.	c #01A7E5",
"n.	c #005FA9",
"o.	c #004484",
"p.	c #003467",
"q.	c #016FAF",
"r.	c #00B8F1",
"s.	c #008EC0",
"t.	c #3B5B7F",
"u.	c #DFEDF3",
"v.	c #246CA0",
"w.	c #648BAF",
"x.	c #6993B6",
"y.	c #658FB3",
"z.	c #206C9F",
"A.	c #CCDFEA",
"B.	c #23547F",
"C.	c #0175BD",
"D.	c #0163A5",
"E.	c #003468",
"F.	c #007BB5",
"G.	c #00BCF4",
"H.	c #028BD4",
"I.	c #0057A0",
"J.	c #005198",
"K.	c #003E79",
"L.	c #003366",
"M.	c #0188CC",
"N.	c #00BBF1",
"O.	c #006795",
"P.	c #C8D4DD",
"Q.	c #EFF8FA",
"R.	c #6590B4",
"S.	c #E4EAEF",
"T.	c #FDFEFE",
"U.	c #F5F8FA",
"V.	c #E4E9EF",
"W.	c #5C88AE",
"X.	c #F2F8FC",
"Y.	c #D4DCE3",
"Z.	c #015897",
"`.	c #016AAF",
" +	c #003A6E",
".+	c #006497",
"++	c #00C7FB",
"@+	c #0198DC",
"#+	c #003B73",
"$+	c #0294D9",
"%+	c #00ACE3",
"&+	c #004E80",
"*+	c #D5E2E9",
"=+	c #F7FBFC",
"-+	c #6C92B5",
";+	c #F4F6F9",
">+	c #DCE3EA",
",+	c #5F88AF",
"'+	c #F3FAFC",
")+	c #DFE6EB",
"!+	c #034981",
"~+	c #016EB5",
"{+	c #003C72",
"]+	c #005684",
"^+	c #00CCFF",
"/+	c #01A5E4",
"(+	c #0293D8",
"_+	c #01A1DA",
":+	c #00437A",
"<+	c #E8EEF2",
"[+	c #FAFDFD",
"}+	c #658CB1",
"|+	c #E5EAEF",
"1+	c #F6FBFC",
"2+	c #E4EBEE",
"3+	c #044880",
"4+	c #005582",
"5+	c #01B0EC",
"6+	c #0282CB",
"7+	c #0189CF",
"8+	c #004880",
"9+	c #DBE2E8",
"0+	c #F9FDFD",
"a+	c #266B9F",
"b+	c #EFF3F5",
"c+	c #F1F4F7",
"d+	c #F6F8FA",
"e+	c #5081AB",
"f+	c #F4FAFC",
"g+	c #CDD7DE",
"h+	c #01528F",
"i+	c #01B3EE",
"j+	c #005DA7",
"k+	c #016CB1",
"l+	c #005695",
"m+	c #9AA5B5",
"n+	c #F4F9FA",
"o+	c #3979A7",
"p+	c #6890B4",
"q+	c #5587AF",
"r+	c #0C669D",
"s+	c #E5F0F6",
"t+	c #91A1B3",
"u+	c #0165A7",
"v+	c #003569",
"w+	c #00608E",
"x+	c #0169B5",
"y+	c #005098",
"z+	c #003D78",
"A+	c #015997",
"B+	c #0179C3",
"C+	c #1F4473",
"D+	c #CDD4DC",
"E+	c #89A0BC",
"F+	c #15679D",
"G+	c #0D669D",
"H+	c #7A97B7",
"I+	c #ACC3D1",
"J+	c #0C4F88",
"K+	c #027DC8",
"L+	c #027CC8",
"M+	c #015694",
"N+	c #0072A3",
"O+	c #017AC6",
"P+	c #00539D",
"Q+	c #004280",
"R+	c #00467E",
"S+	c #0178C3",
"T+	c #0169AE",
"U+	c #325883",
"V+	c #E1E7EC",
"W+	c #EDF4F7",
"X+	c #F2F7F9",
"Y+	c #FCFEFE",
"Z+	c #FBFDFD",
"`+	c #F2F8FA",
" @	c #DDE9F1",
".@	c #B3C5D3",
"+@	c #05457B",
"@@	c #0171B8",
"#@	c #004077",
"$@	c #009ACD",
"%@	c #01A6E5",
"&@	c #0062AC",
"*@	c #00366A",
"=@	c #0160A1",
"-@	c #027ECA",
";@	c #184F82",
">@	c #B7BEC9",
",@	c #E9EEF1",
"'@	c #FBFDFE",
")@	c #F8FCFD",
"!@	c #F4FAFB",
"~@	c #DEE9EE",
"{@	c #90A4B7",
"]@	c #1B4A7F",
"^@	c #016FB6",
"/@	c #004577",
"(@	c #00C3F6",
"_@	c #00C9FD",
":@	c #019BDD",
"<@	c #00559E",
"[@	c #003B74",
"}@	c #003D73",
"|@	c #016DB4",
"1@	c #0171B9",
"2@	c #03457D",
"3@	c #596D89",
"4@	c #7A8699",
"5@	c #788599",
"6@	c #708197",
"7@	c #496385",
"8@	c #0A538E",
"9@	c #0278C1",
"0@	c #0160A2",
"a@	c #0093C4",
"b@	c #00C0F7",
"c@	c #028FD6",
"d@	c #0066B0",
"e@	c #004F95",
"f@	c #0164A7",
"g@	c #016DB3",
"h@	c #015C9D",
"i@	c #015E9F",
"j@	c #0170B7",
"k@	c #027BC6",
"l@	c #005998",
"m@	c #003568",
"n@	c #005D8D",
"o@	c #00BFF1",
"p@	c #00CBFE",
"q@	c #00AFEA",
"r@	c #0281CE",
"s@	c #027AC7",
"t@	c #0061AB",
"u@	c #004787",
"v@	c #005592",
"w@	c #004F8A",
"x@	c #004D7D",
"y@	c #00A8D8",
"z@	c #00C1F7",
"A@	c #0168B1",
"B@	c #004C8C",
"C@	c #00366B",
"D@	c #003F76",
"E@	c #00518D",
"F@	c #015C9B",
"G@	c #015F9F",
"H@	c #004E88",
"I@	c #003F72",
"J@	c #00A5D6",
"K@	c #00C8FB",
"L@	c #0196DB",
"M@	c #0284CF",
"N@	c #0085C8",
"O@	c #005698",
"P@	c #004D7F",
"Q@	c #00B9EB",
"R@	c #00CAFD",
"S@	c #019EDF",
"T@	c #009DDC",
"U@	c #0085C1",
"V@	c #00669A",
"W@	c #00477C",
"X@	c #003367",
"Y@	c #00396B",
"Z@	c #004B7B",
"`@	c #006B97",
" #	c #008DBC",
".#	c #00C0F3",
"+#	c #00C6FA",
"@#	c #01A4E3",
"##	c #01A1E2",
"$#	c #00AFE9",
"%#	c #00A8DC",
"&#	c #009FCF",
"*#	c #009ECC",
"=#	c #00A1D0",
"-#	c #00ACDD",
";#	c #00C4F7",
">#	c #00CAFE",
",#	c #0281CD",
"'#	c #018BD4",
")#	c #01A2E2",
"!#	c #00C3F9",
"~#	c #00CBFF",
"{#	c #00B4EE",
"]#	c #0289D2",
"^#	c #0191D8",
"/#	c #01A0E1",
"(#	c #01A2E3",
"_#	c #019BDE",
":#	c #018CD5",
"                                                      ",
"                                                      ",
"                                                      ",
"                                                      ",
"                                                      ",
"                                                      ",
"                                                      ",
"                                                      ",
"                                                      ",
"                                                      ",
"                                                      ",
"                                                      ",
"                                                      ",
". . . . . . + @ # $ % % % % & * = - ; . . . . . . . . ",
". . . . > - , ' ) ) ! ~ ~ ~ ~ { ) ] ^ / . . . . . . . ",
". . . > ( _ ) : < [ } | | | | 1 2 3 4 5 6 . . . . . . ",
". . ; 7 ' 8 ~ 9 0 a b c c c d e f g h i ! j > . . . . ",
". > ( k 8 l m n o p q r s t u v w . x y z A B C . . . ",
". D % ) ~ E g F G H I J K L M N O . . P Q R S T . . . ",
"> U ) V z W v X Y Z `  ...+.@.#.$.%.&.. *.=.-.;.>.. . ",
",.5 ) 9 '.).!.~.{.].^./.(._.:.<.[.}.|.1.. 2.} 3.4.5.. ",
"6.) 7.8.9.0.a.b.c.d.e.e.e.e.e.e.e.f.g.h.; i.j.k.l.m.. ",
"n.) o.p.q.r.s.t.u.e.v.w.x.x.y.y.z.e.A.B.C.. D.E.F.G.H.",
"I.J.K.L.M.N.O.P.Q.e.R.S.T.T.U.V.W.e.X.Y.Z.. `. +.+++@+",
") { #+L.$+%+&+*+=+e.-+;+T.T.T.>+,+e.'+)+!+. ~+{+]+^+/+",
") ! R L.(+_+:+<+[+e.}+U.T.T.T.|+y.e.1+2+3+. ~+{+4+^+5+",
"_ ! R L.6+7+8+9+0+a+y.b+c+;+d+|+e+e.f+g+h+. 2.1 4+^+i+",
"j+{ #+L.k+C l+m+n+e.e.o+R.-+p+q+e.r+s+t+2.. u+v+w+^+i+",
"x+y+z+L.A+. B+C+D+E+F+e.e.e.e.G+a+H+I+J+K+L+M+L.N+^+5+",
"O+P+Q+L.R+S+. T+U+V+W+X+Y+T.Z+`+ @.@+@@@. C.#@L.$@^+%@",
"> &@< v+*@=@-@P T+;@>@,@'@)@!@~@{@]@^@> . y L./@(@_@:@",
". - <@[@L.}@|@. P 1@2@3@4@5@6@7@8@9@. . 0@*@L.a@^+b@c@",
". ; d@e@E.L.L.f@-@. . g@h@h@i@j@P . k@l@m@p.n@o@p@q@r@",
". . s@t@u@8.L.m@v@@@L+. . . . ; i.^@w@p.L.x@y@p@z@>.. ",
". . . L+A@B@C@L.E.D@E@F@G@G@G@A+H@{+L.L.I@J@K@_@L@. . ",
". . . . M@N@O@C@L.L.L.p.p.p.p.p.L.L.L.P@Q@p@R@S@. . . ",
". . . . . d T@U@V@W@*@X@L.L.L.Y@Z@`@ #.#^++#@#C . . . ",
". . . . . . w ##$#%#&#*#*#*#*#=#-#;#^+>#G.:@w . . . . ",
". . . . . . . ,#'#)#!#^+^+^+^+^+^+~#{#@+]#. . . . . . ",
". . . . . . . . . . . ^#/#(#(#(#_#:#. . . . . . . . . "};
