/* XPM */
static char * right_active_xpm[] = {
"29 1 9 1",
" 	c None",
".	c #0280CD",
"+	c #0164AD",
"@	c #004F96",
"#	c #00498C",
"$	c #003366",
"%	c #FFFFFF",
"&	c #DCDCD9",
"*	c #A5A599",
"....................+@@#$%%&*"};
