/* XPM */
static char * title_3_active_xpm[] = {
"1 40 11 1",
" 	c None",
".	c #A5A599",
"+	c #DCDCD9",
"@	c #FFFFFF",
"#	c #003366",
"$	c #0079AB",
"%	c #009BD3",
"&	c #00CCFF",
"*	c #018FD0",
"=	c #0281CD",
"-	c #0280CD",
".",
"+",
"@",
"@",
"#",
"#",
"$",
"%",
"&",
"&",
"&",
"*",
"=",
"-",
"-",
"-",
"-",
"-",
"-",
"-",
"-",
"-",
"-",
"-",
"-",
"-",
"-",
"-",
"-",
"-",
"-",
"-",
"-",
"-",
"-",
"-",
"-",
"-",
"-",
"-"};
