/* XPM */
static char * top_left_active_xpm[] = {
"30 41 197 2",
"  	c None",
". 	c #A5A599",
"+ 	c #A9A99E",
"@ 	c #A6A69A",
"# 	c #A8A89D",
"$ 	c #B3B3AA",
"% 	c #AFAFA5",
"& 	c #B7B7AF",
"* 	c #BBBBB3",
"= 	c #B9B9B1",
"- 	c #BEBEB6",
"; 	c #CBCBC5",
"> 	c #A9A99D",
", 	c #B0B0A6",
"' 	c #D9D9D5",
") 	c #F8F8F7",
"! 	c #FBFBFB",
"~ 	c #FFFFFF",
"{ 	c #A6A69B",
"] 	c #B2B2A9",
"^ 	c #FEFEFE",
"/ 	c #FDFDFD",
"( 	c #A7A79B",
"_ 	c #CACAC4",
": 	c #ECECEA",
"< 	c #EDEDEF",
"[ 	c #D4D5DA",
"} 	c #9B9FAD",
"| 	c #798195",
"1 	c #053567",
"2 	c #003366",
"3 	c #043467",
"4 	c #013366",
"5 	c #033366",
"6 	c #DDDDDA",
"7 	c #FCFCFD",
"8 	c #ECEDEF",
"9 	c #AFB3BD",
"0 	c #003467",
"a 	c #B4B4AB",
"b 	c #EEEEED",
"c 	c #EAEBED",
"d 	c #7B8296",
"e 	c #003466",
"f 	c #005C8A",
"g 	c #00608D",
"h 	c #006F9F",
"i 	c #007CAC",
"j 	c #0084B6",
"k 	c #0082B3",
"l 	c #0089BA",
"m 	c #0083B5",
"n 	c #A7A79C",
"o 	c #D0D0CB",
"p 	c #F8F8F8",
"q 	c #B7BAC3",
"r 	c #003F6F",
"s 	c #005885",
"t 	c #0077A6",
"u 	c #0095C7",
"v 	c #00A9DA",
"w 	c #00A8DA",
"x 	c #00A9DB",
"y 	c #00ABDE",
"z 	c #00A5D6",
"A 	c #00A6D7",
"B 	c #00A6D9",
"C 	c #00AADB",
"D 	c #AFAFA4",
"E 	c #C5C6BF",
"F 	c #FAFAFB",
"G 	c #004E7B",
"H 	c #005F8B",
"I 	c #0093C2",
"J 	c #00B8EA",
"K 	c #00BDEF",
"L 	c #00C7FA",
"M 	c #00CCFF",
"N 	c #E1E1DE",
"O 	c #BCBFC7",
"P 	c #006792",
"Q 	c #00A0CE",
"R 	c #00B4E5",
"S 	c #00BFF2",
"T 	c #00C6F9",
"U 	c #A8A89C",
"V 	c #F4F5F6",
"W 	c #B8BBC3",
"X 	c #00A5D3",
"Y 	c #00C6F8",
"Z 	c #00CBFE",
"` 	c #F2F2F1",
" .	c #D9DADF",
"..	c #005582",
"+.	c #00B3E5",
"@.	c #00C4F6",
"#.	c #00CAFE",
"$.	c #00C7FC",
"%.	c #00C0F6",
"&.	c #00BEF5",
"*.	c #00B6EF",
"=.	c #019BDD",
"-.	c #01A0E0",
";.	c #0299DB",
">.	c #018FD2",
",.	c #E9E9E7",
"'.	c #FCFCFC",
").	c #E7E8EA",
"!.	c #00A4D5",
"~.	c #00C8FA",
"{.	c #00C6FB",
"].	c #00B8F1",
"^.	c #01A4E3",
"/.	c #0291D7",
"(.	c #0285D0",
"_.	c #0282CE",
":.	c #0280CD",
"<.	c #0282CD",
"[.	c #0283CE",
"}.	c #0188CF",
"|.	c #AEAEA4",
"1.	c #00ACDE",
"2.	c #00BFF1",
"3.	c #00C8FC",
"4.	c #00B4EF",
"5.	c #0291D6",
"6.	c #0281CD",
"7.	c #D6D6D2",
"8.	c #F8F8F9",
"9.	c #C2C5CC",
"0.	c #006C98",
"a.	c #00BCEE",
"b.	c #00C4F9",
"c.	c #01A1E1",
"d.	c #A5A59A",
"e.	c #ACACA1",
"f.	c #FDFDFE",
"g.	c #BBBDC5",
"h.	c #3D4F74",
"i.	c #00396B",
"j.	c #005F8D",
"k.	c #00B1E2",
"l.	c #00C1F7",
"m.	c #DFDFDB",
"n.	c #A7ABB6",
"o.	c #006393",
"p.	c #009CCE",
"q.	c #00C8FB",
"r.	c #019DDF",
"s.	c #0285CF",
"t.	c #E5E5E2",
"u.	c #E7E8EB",
"v.	c #868D9E",
"w.	c #0079AA",
"x.	c #00C9FC",
"y.	c #F6F6F5",
"z.	c #E5E6E9",
"A.	c #004C7B",
"B.	c #0092C2",
"C.	c #00C5F7",
"D.	c #0287D1",
"E.	c #BFBFB8",
"F.	c #C7C9CF",
"G.	c #0078A9",
"H.	c #00A7D8",
"I.	c #00CAFC",
"J.	c #019EDF",
"K.	c #0281CE",
"L.	c #C8C8C3",
"M.	c #003567",
"N.	c #007FAD",
"O.	c #00BBEC",
"P.	c #00BCF4",
"Q.	c #028AD3",
"R.	c #FAFAF9",
"S.	c #003A6B",
"T.	c #00A1D2",
"U.	c #00C3F5",
"V.	c #019DDE",
"W.	c #D7D7D4",
"X.	c #005382",
"Y.	c #00A7D9",
"Z.	c #00C8FD",
"`.	c #0197DA",
" +	c #DCDCD9",
".+	c #576380",
"++	c #006190",
"@+	c #00B2E4",
"#+	c #00BCF3",
"$+	c #006B9C",
"%+	c #00A0D5",
"&+	c #01A5E4",
"*+	c #0079AB",
"=+	c #009BD3",
"-+	c #01A7E5",
";+	c #018CD0",
">+	c #018FD0",
"                                      . . . . . . . . . . . ",
"                                + . . . @ . # $ % & * = - ; ",
"                          . . . > . , ' ) ! ~ ~ ~ ~ ~ ~ ~ ~ ",
"                      . . { ] ' ! ~ ~ ~ ^ ^ ~ ~ ~ ~ / ~ ~ / ",
"                  . . ( _ : ! ~ ~ < [ } | 1 2 3 4 4 5 4 4 5 ",
"                . . . 6 ) ^ 7 8 9 2 2 2 2 2 2 2 2 0 2 2 0 2 ",
"              . # a b ^ ~ c d 0 e 2 2 2 2 f f g h i j k l m ",
"            n > o p ~ ~ q 2 2 2 2 r s t u v w x y z A B C x ",
"          @ D E F ~ ~ 9 2 2 2 G H I J K L M M M M M M M M M ",
"        . n N 7 ~ ~ O 2 2 2 P Q R S T M M M M M M M M M M M ",
"        U ; ^ ~ V W 2 2 2 P X K Y M M M M M M M M M M M M Z ",
"      . % ` ^ ~  .2 2 2 ..+.@.M M M M M M #.$.%.&.*.=.-.;.>.",
"    . # ,.F '.).2 2 2 ..!.~.M M M M M {.].^./.(._.:.:.<.[.}.",
"    . |.! './ 2 2 2 G 1.2.M M M M 3.4.5.(.6.:.:.:.:.:.:.:.:.",
"  . ( 7.~ 8.9.2 2 2 0.a.M M M M b.c.(.6.:.:.:.:.:.:.:.:.:.:.",
"  d.e./ f.g.h.2 i.j.k.M M M M l.-.(.:.:.:.:.:.:.:.:.:.:.:.:.",
"  # m.~ / n.2 2 o.p.q.M M M l.r.s.:.:.:.:.:.:.:.:.:.:.:.:.:.",
". e.t.~ u.v.2 2 w.a.x.M M 3.-._.:.:.:.:.:.:.:.:.:.:.:.:.:.:.",
". = y.~ z.2 2 A.B.C.M M M &.D.:.:.:.:.:.:.:.:.:.:.:.:.:.:.:.",
". E.'.~ F.2 2 G.H.I.M M #.J.K.:.:.:.:.:.:.:.:.:.:.:.:.:.:.:.",
". L.~ ~ O 2 M.N.O.M M M P.Q.:.:.:.:.:.:.:.:.:.:.:.:.:.:.:.:.",
". o R.~ v.2 S.T.U.M M 3.V._.:.:.:.:.:.:.:.:.:.:.:.:.:.:.:.:.",
". W.~ ~ v.2 X.Y.Z M M Z.`.:.:.:.:.:.:.:.:.:.:.:.:.:.:.:.:.:.",
".  +~ ~ .+2 ++@+Z M M #+K.:.6.:.:.:.:.:.:.:.:.:.:.:.:.:.:.:.",
".  +~ ~ 2 2 $+%+M M M &+:.:.:.:.:.:.:.:.:.:.:.:.:.:.:.:.:.:.",
".  +~ ~ 2 2 *+=+M M M -+:.:.:.:.:.:.:.:.:.:.:.:.:.:.:.:.:.:.",
".  +~ ~ 2 2 *+=+M M M ;+:.:.:.:.:.:.:.:.:.:.:.:.:.:.:.:.:.:.",
".  +~ ~ 2 2 *+=+M M M >+6.:.:.:.:.:.:.:.:.:.:.:.:.:.:.:.:.:.",
".  +~ ~ 2 2 *+=+M M M >+6.:.:.:.:.:.:.:.:.:.:.:.:.:.:.:.:.:.",
".  +~ ~ 2 2 *+=+M M M >+6.:.:.:.:.:.:.:.:.:.:.:.:.:.:.:.:.:.",
".  +~ ~ 2 2 *+=+M M M >+6.:.:.:.:.:.:.:.:.:.:.:.:.:.:.:.:.:.",
".  +~ ~ 2 2 *+=+M M M >+6.:.:.:.:.:.:.:.:.:.:.:.:.:.:.:.:.:.",
".  +~ ~ 2 2 *+=+M M M >+6.:.:.:.:.:.:.:.:.:.:.:.:.:.:.:.:.:.",
".  +~ ~ 2 2 *+=+M M M >+6.:.:.:.:.:.:.:.:.:.:.:.:.:.:.:.:.:.",
".  +~ ~ 2 2 *+=+M M M >+6.:.:.:.:.:.:.:.:.:.:.:.:.:.:.:.:.:.",
".  +~ ~ 2 2 *+=+M M M >+6.:.:.:.:.:.:.:.:.:.:.:.:.:.:.:.:.:.",
".  +~ ~ 2 2 *+=+M M M >+6.:.:.:.:.:.:.:.:.:.:.:.:.:.:.:.:.:.",
".  +~ ~ 2 2 *+=+M M M >+6.:.:.:.:.:.:.:.:.:.:.:.:.:.:.:.:.:.",
".  +~ ~ 2 2 *+=+M M M >+6.:.:.:.:.:.:.:.:.:.:.:.:.:.:.:.:.:.",
".  +~ ~ 2 2 *+=+M M M >+6.:.:.:.:.:.:.:.:.:.:.:.:.:.:.:.:.:.",
".  +~ ~ 2 2 *+=+M M M >+6.:.:.:.:.:.:.:.:.:.:.:.:.:.:.:.:.:."};
