/* XPM */
static char * top_right_active_xpm[] = {
"30 41 216 2",
"  	c None",
". 	c #A5A599",
"+ 	c #CBCBC5",
"@ 	c #BEBEB6",
"# 	c #B9B9B1",
"$ 	c #BBBBB3",
"% 	c #B7B7AF",
"& 	c #AFAFA5",
"* 	c #B3B3AA",
"= 	c #A8A89D",
"- 	c #A6A69A",
"; 	c #A9A99E",
"> 	c #FFFFFF",
", 	c #FBFBFB",
"' 	c #F8F8F7",
") 	c #D9D9D5",
"! 	c #B0B0A6",
"~ 	c #A9A99D",
"{ 	c #FDFDFD",
"] 	c #FEFEFE",
"^ 	c #B2B2A9",
"/ 	c #A6A69B",
"( 	c #033366",
"_ 	c #013366",
": 	c #043467",
"< 	c #003366",
"[ 	c #053567",
"} 	c #798195",
"| 	c #9B9FAD",
"1 	c #D4D5DA",
"2 	c #EDEDEF",
"3 	c #ECECEA",
"4 	c #CACAC4",
"5 	c #A7A79B",
"6 	c #003467",
"7 	c #AFB3BD",
"8 	c #ECEDEF",
"9 	c #FCFCFD",
"0 	c #DDDDDA",
"a 	c #0083B5",
"b 	c #0089BA",
"c 	c #0082B3",
"d 	c #0084B6",
"e 	c #007CAC",
"f 	c #006F9F",
"g 	c #00608D",
"h 	c #005C8A",
"i 	c #003466",
"j 	c #7B8296",
"k 	c #EAEBED",
"l 	c #EEEEED",
"m 	c #B4B4AB",
"n 	c #00A9DB",
"o 	c #00AADB",
"p 	c #00A6D9",
"q 	c #00A6D7",
"r 	c #00A5D6",
"s 	c #00ABDE",
"t 	c #00A8DA",
"u 	c #00A9DA",
"v 	c #0095C7",
"w 	c #0077A6",
"x 	c #005885",
"y 	c #003F6F",
"z 	c #B7BAC3",
"A 	c #F8F8F8",
"B 	c #D0D0CB",
"C 	c #A7A79C",
"D 	c #00CCFF",
"E 	c #00C7FA",
"F 	c #00BDEF",
"G 	c #00B8EA",
"H 	c #0093C2",
"I 	c #005F8B",
"J 	c #004E7B",
"K 	c #FAFAFB",
"L 	c #C5C6BF",
"M 	c #AFAFA4",
"N 	c #00C6F9",
"O 	c #00BFF2",
"P 	c #00B4E5",
"Q 	c #00A0CE",
"R 	c #006792",
"S 	c #BCBFC7",
"T 	c #E1E1DE",
"U 	c #00CBFE",
"V 	c #00A5D3",
"W 	c #B8BBC3",
"X 	c #F4F5F6",
"Y 	c #A8A89C",
"Z 	c #018CD1",
"` 	c #028ED4",
" .	c #018CD4",
"..	c #0189D1",
"+.	c #018BD2",
"@.	c #0189D2",
"#.	c #018BD4",
"$.	c #0194D9",
"%.	c #0199DB",
"&.	c #01B7EF",
"*.	c #00C1F6",
"=.	c #00C9FD",
"-.	c #00C5F7",
";.	c #00AADE",
">.	c #004F96",
",.	c #003D77",
"'.	c #D9DADF",
").	c #F2F2F1",
"!.	c #0185CE",
"~.	c #0282CE",
"{.	c #0282CD",
"].	c #0280CD",
"^.	c #0281CE",
"/.	c #0281CD",
"(.	c #0281CC",
"_.	c #027FCB",
":.	c #027EC7",
"<.	c #0282CB",
"[.	c #0184CC",
"}.	c #0190D6",
"|.	c #01A9E5",
"1.	c #00C8FC",
"2.	c #00BEF1",
"3.	c #0094CB",
"4.	c #E7E8EA",
"5.	c #FCFCFC",
"6.	c #E9E9E7",
"7.	c #0280CA",
"8.	c #027CC4",
"9.	c #0180C8",
"0.	c #0189CF",
"a.	c #019ADB",
"b.	c #00BDF1",
"c.	c #008EC6",
"d.	c #003F7A",
"e.	c #AEAEA4",
"f.	c #027BC5",
"g.	c #0181CB",
"h.	c #0099D7",
"i.	c #00C3F5",
"j.	c #0071AA",
"k.	c #004B8F",
"l.	c #00417D",
"m.	c #C2C5CC",
"n.	c #F8F8F9",
"o.	c #D6D6D2",
"p.	c #008BCD",
"q.	c #0097D5",
"r.	c #00BBF1",
"s.	c #0096CD",
"t.	c #00498B",
"u.	c #00366B",
"v.	c #3D4F74",
"w.	c #BBBDC5",
"x.	c #FDFDFE",
"y.	c #ACACA1",
"z.	c #A5A59A",
"A.	c #0185C9",
"B.	c #0091D1",
"C.	c #00A8DD",
"D.	c #007DB7",
"E.	c #005196",
"F.	c #A7ABB6",
"G.	c #DFDFDB",
"H.	c #017DC5",
"I.	c #008DCD",
"J.	c #00AFE4",
"K.	c #004484",
"L.	c #868D9E",
"M.	c #E7E8EB",
"N.	c #E5E5E2",
"O.	c #027CC6",
"P.	c #0189CB",
"Q.	c #009BD4",
"R.	c #004686",
"S.	c #E5E6E9",
"T.	c #F6F6F5",
"U.	c #0280CC",
"V.	c #0179C2",
"W.	c #009ED7",
"X.	c #0064A3",
"Y.	c #004A8D",
"Z.	c #C7C9CF",
"`.	c #BFBFB8",
" +	c #017BC4",
".+	c #0194D1",
"++	c #0079B4",
"@+	c #004B8E",
"#+	c #C8C8C3",
"$+	c #018FD2",
"%+	c #0083C2",
"&+	c #005097",
"*+	c #004C91",
"=+	c #FAFAF9",
"-+	c #027AC5",
";+	c #0182C7",
">+	c #00529A",
",+	c #005092",
"'+	c #D7D7D4",
")+	c #027DC9",
"!+	c #016FBA",
"~+	c #015AA1",
"{+	c #005295",
"]+	c #576380",
"^+	c #DCDCD9",
"/+	c #027FCC",
"(+	c #0169B2",
"_+	c #00569D",
":+	c #004584",
"<+	c #0166AF",
"[+	c #005299",
"}+	c #004787",
"|+	c #0164AD",
"1+	c #00498C",
"2+	c #0167AF",
"3+	c #027DCA",
". . . . . . . . . . .                                       ",
"+ @ # $ % & * = . - . . . ;                                 ",
"> > > > > > > > , ' ) ! . ~ . . .                           ",
"{ > > { > > > > ] ] > > > , ) ^ / . .                       ",
"( _ _ ( _ _ : < [ } | 1 2 > > , 3 4 5 . .                   ",
"< 6 < < 6 < < < < < < < < 7 8 9 ] ' 0 . . .                 ",
"a b c d e f g h h < < < < i 6 j k > ] l m = .               ",
"n o p q r s n t u v w x y < < < < z > > A B ~ C             ",
"D D D D D D D D D E F G H I J < < < 7 > > K L M -           ",
"D D D D D D D D D D D N O P Q R < < < S > > 9 T C .         ",
"U D D D D D D D D D D D D N F V R < < < W X > ] + Y         ",
"Z `  ... .+. .@.#.$.%.&.*.=.D -.;.>.,.< < '.> ] ).& .       ",
"!.~.{.].].^.^./.(._.:.<.[.}.|.1.2.3.>.,.< < 4.5.K 6.= .     ",
"].].].].].].].].].].^.7.8.9.0.a.D b.c.>.d.< < { 5., e..     ",
"].].].].].].].].].]./.].]._.f.g.h.D i.j.k.l.< m.n.> o.5 .   ",
"].].].].].].].].].].].].].].].:.p.q.r.s.>.t.u.v.w.x.{ y.z.  ",
"].].].].].].].].].].].].].].].].7.A.B.C.D.E.d.< F.{ > G.=   ",
"].].].].].].].].].].].].].].].].]._.H.I.J.>.K.< L.M.> N.y.. ",
"].].].].].].].].].].].].].].].].].].O.P.Q.>.>.R.< S.> T.# . ",
"].].].].].].].].].].].].].].].].].].U.V.W.X.>.Y.< Z.> 5.`.. ",
"].].].].].].].].].].].].].].].].].].]. +.+++>.@+< S > > #+. ",
"].].].].].].].].].].].].].].].].].].]._.$+%+&+*+< L.> =+B . ",
"].].].].].].].].].].].].].].].].].].].U.-+;+>+,+< L.> > '+. ",
"].].].].].].].].].].].].].].].].].].].].)+!+~+{+< ]+> > ^+. ",
"].].].].].].].].].].].].].].].].].].].]./+(+_+>.:+< > > ^+. ",
"].].].].].].].].].].].].].].].].].].].].].<+[+>.}+< > > ^+. ",
"].].].].].].].].].].].].].].].].].].].].].|+>.>.R.< > > ^+. ",
"].].].].].].].].].].].].].].].].].].].].].|+>.>.R.< > > ^+. ",
"].].].].].].].].].].].].].].].].].].].].].|+>.>.R.< > > ^+. ",
"].].].].].].].].].].].].].].].].].].].].].|+>.>.1+< > > ^+. ",
"].].].].].].].].].].].].].].].].].].].].].|+>.>.1+< > > ^+. ",
"].].].].].].].].].].].].].].].].].].].].].2+>.>.1+< > > ^+. ",
"].].].].].].].].].].].].].].].].].].].].].2+>.>.1+< > > ^+. ",
"].].].].].].].].].].].].].].].].].].].].].2+>.>.1+< > > ^+. ",
"].].].].].].].].].].].].].].].].].].].].].2+>.>.1+< > > ^+. ",
"].].].].].].].].].].].].].].].].].].].].].2+>.>.R.< > > ^+. ",
"].].].].].].].].].].].].].].].].].].].].].|+>.>.R.< > > ^+. ",
"].].].].].].].].].].].].].].].].].].].].].|+>.>.R.< > > ^+. ",
"].].].].].].].].].].].].].].].].].].].].].|+>.>.R.< > > ^+. ",
"].].].].].].].].].].].].].].].].].].].]./+|+>.>.R.< > > ^+. ",
"].].].].].].].].].].].].].].].].].].].].3+|+>.>.R.< > > ^+. "};
